<?xml version="1.0" encoding="UTF-8" standalone="no"?>
<!DOCTYPE svg PUBLIC "-//W3C//DTD SVG 1.1//EN"
 "http://www.w3.org/Graphics/SVG/1.1/DTD/svg11.dtd">
<!-- Generated by graphviz version 2.43.0 (0)
 -->
<!-- Title: actor_critic_loop Pages: 1 -->
<svg width="3074pt" height="488pt"
 viewBox="0.00 0.00 3073.90 487.90" xmlns="http://www.w3.org/2000/svg" xmlns:xlink="http://www.w3.org/1999/xlink">
<g id="graph0" class="graph" transform="scale(1 1) rotate(0) translate(43.2 444.7)">
<title>actor_critic_loop</title>
<polygon fill="#0d1117" stroke="transparent" points="-43.2,43.2 -43.2,-444.7 3030.7,-444.7 3030.7,43.2 -43.2,43.2"/>
<text text-anchor="middle" x="1493.75" y="-383.1" font-family="Courier New" font-size="18.00" fill="#c9d1d9">duel — Actor/Critic Refinement Sequence</text>
<!-- hUser -->
<g id="node1" class="node">
<title>hUser</title>
<path fill="#1f4068" stroke="#58a6ff" d="M275.5,-43C275.5,-43 169.5,-43 169.5,-43 163.5,-43 157.5,-37 157.5,-31 157.5,-31 157.5,-12 157.5,-12 157.5,-6 163.5,0 169.5,0 169.5,0 275.5,0 275.5,0 281.5,0 287.5,-6 287.5,-12 287.5,-12 287.5,-31 287.5,-31 287.5,-37 281.5,-43 275.5,-43"/>
<text text-anchor="middle" x="222.5" y="-18.7" font-family="Courier New" font-size="11.00" fill="#ffffff">USER</text>
</g>
<!-- hApp -->
<g id="node2" class="node">
<title>hApp</title>
<path fill="#0d3b2e" stroke="#3fb950" d="M275.5,-108C275.5,-108 169.5,-108 169.5,-108 163.5,-108 157.5,-102 157.5,-96 157.5,-96 157.5,-77 157.5,-77 157.5,-71 163.5,-65 169.5,-65 169.5,-65 275.5,-65 275.5,-65 281.5,-65 287.5,-71 287.5,-77 287.5,-77 287.5,-96 287.5,-96 287.5,-102 281.5,-108 275.5,-108"/>
<text text-anchor="middle" x="222.5" y="-83.7" font-family="Courier New" font-size="11.00" fill="#ffffff">APP (app.rs)</text>
</g>
<!-- hOllama -->
<g id="node3" class="node">
<title>hOllama</title>
<path fill="#3b2a0a" stroke="#e3b341" d="M275.5,-173C275.5,-173 169.5,-173 169.5,-173 163.5,-173 157.5,-167 157.5,-161 157.5,-161 157.5,-142 157.5,-142 157.5,-136 163.5,-130 169.5,-130 169.5,-130 275.5,-130 275.5,-130 281.5,-130 287.5,-136 287.5,-142 287.5,-142 287.5,-161 287.5,-161 287.5,-167 281.5,-173 275.5,-173"/>
<text text-anchor="middle" x="222.5" y="-154.7" font-family="Courier New" font-size="11.00" fill="#ffffff">OLLAMA</text>
<text text-anchor="middle" x="222.5" y="-142.7" font-family="Courier New" font-size="11.00" fill="#ffffff">qwen3.5:4b</text>
</g>
<!-- u1 -->
<g id="node4" class="node">
<title>u1</title>
<path fill="#1a2e4a" stroke="#58a6ff" d="M275.5,-369.5C275.5,-369.5 169.5,-369.5 169.5,-369.5 163.5,-369.5 157.5,-363.5 157.5,-357.5 157.5,-357.5 157.5,-345.5 157.5,-345.5 157.5,-339.5 163.5,-333.5 169.5,-333.5 169.5,-333.5 275.5,-333.5 275.5,-333.5 281.5,-333.5 287.5,-339.5 287.5,-345.5 287.5,-345.5 287.5,-357.5 287.5,-357.5 287.5,-363.5 281.5,-369.5 275.5,-369.5"/>
<text text-anchor="middle" x="222.5" y="-354.7" font-family="Courier New" font-size="11.00" fill="#c9d1d9">Enter prompt</text>
<text text-anchor="middle" x="222.5" y="-342.7" font-family="Courier New" font-size="11.00" fill="#c9d1d9">&quot;write a sort&quot;</text>
</g>
<!-- u2 -->
<g id="node5" class="node">
<title>u2</title>
<path fill="#1a2e4a" stroke="#58a6ff" d="M641.5,-373.5C641.5,-373.5 535.5,-373.5 535.5,-373.5 529.5,-373.5 523.5,-367.5 523.5,-361.5 523.5,-361.5 523.5,-349.5 523.5,-349.5 523.5,-343.5 529.5,-337.5 535.5,-337.5 535.5,-337.5 641.5,-337.5 641.5,-337.5 647.5,-337.5 653.5,-343.5 653.5,-349.5 653.5,-349.5 653.5,-361.5 653.5,-361.5 653.5,-367.5 647.5,-373.5 641.5,-373.5"/>
<text text-anchor="middle" x="588.5" y="-358.7" font-family="Courier New" font-size="11.00" fill="#c9d1d9">Watch Actor</text>
<text text-anchor="middle" x="588.5" y="-346.7" font-family="Courier New" font-size="11.00" fill="#c9d1d9">stream tokens</text>
</g>
<!-- u1&#45;&gt;u2 -->
<!-- a1 -->
<g id="node10" class="node">
<title>a1</title>
<path fill="#0d2e1a" stroke="#3fb950" d="M275.5,-231.5C275.5,-231.5 169.5,-231.5 169.5,-231.5 163.5,-231.5 157.5,-225.5 157.5,-219.5 157.5,-219.5 157.5,-207.5 157.5,-207.5 157.5,-201.5 163.5,-195.5 169.5,-195.5 169.5,-195.5 275.5,-195.5 275.5,-195.5 281.5,-195.5 287.5,-201.5 287.5,-207.5 287.5,-207.5 287.5,-219.5 287.5,-219.5 287.5,-225.5 281.5,-231.5 275.5,-231.5"/>
<text text-anchor="middle" x="222.5" y="-216.7" font-family="Courier New" font-size="11.00" fill="#c9d1d9">start_loop()</text>
<text text-anchor="middle" x="222.5" y="-204.7" font-family="Courier New" font-size="11.00" fill="#c9d1d9">prewarm → spawn</text>
</g>
<!-- u1&#45;&gt;a1 -->
<g id="edge17" class="edge">
<title>u1&#45;&gt;a1</title>
<path fill="none" stroke="#58a6ff" d="M157.1,-351.5C146.82,-351.5 139.5,-351.5 139.5,-351.5 139.5,-351.5 139.5,-213.5 139.5,-213.5 139.5,-213.5 150.1,-213.5 150.1,-213.5"/>
<polygon fill="#58a6ff" stroke="#58a6ff" points="150.1,-215.95 157.1,-213.5 150.1,-211.05 150.1,-215.95"/>
<text text-anchor="middle" x="65" y="-280.3" font-family="Courier New" font-size="9.00" fill="#8b949e">Enter</text>
</g>
<!-- u3 -->
<g id="node6" class="node">
<title>u3</title>
<path fill="#1a2e4a" stroke="#58a6ff" d="M1305.5,-373.5C1305.5,-373.5 1199.5,-373.5 1199.5,-373.5 1193.5,-373.5 1187.5,-367.5 1187.5,-361.5 1187.5,-361.5 1187.5,-349.5 1187.5,-349.5 1187.5,-343.5 1193.5,-337.5 1199.5,-337.5 1199.5,-337.5 1305.5,-337.5 1305.5,-337.5 1311.5,-337.5 1317.5,-343.5 1317.5,-349.5 1317.5,-349.5 1317.5,-361.5 1317.5,-361.5 1317.5,-367.5 1311.5,-373.5 1305.5,-373.5"/>
<text text-anchor="middle" x="1252.5" y="-358.7" font-family="Courier New" font-size="11.00" fill="#c9d1d9">Watch Critic</text>
<text text-anchor="middle" x="1252.5" y="-346.7" font-family="Courier New" font-size="11.00" fill="#c9d1d9">stream + score</text>
</g>
<!-- u2&#45;&gt;u3 -->
<!-- u4 -->
<g id="node7" class="node">
<title>u4</title>
<path fill="#1a2e4a" stroke="#58a6ff" d="M2003.5,-373.5C2003.5,-373.5 1897.5,-373.5 1897.5,-373.5 1891.5,-373.5 1885.5,-367.5 1885.5,-361.5 1885.5,-361.5 1885.5,-349.5 1885.5,-349.5 1885.5,-343.5 1891.5,-337.5 1897.5,-337.5 1897.5,-337.5 2003.5,-337.5 2003.5,-337.5 2009.5,-337.5 2015.5,-343.5 2015.5,-349.5 2015.5,-349.5 2015.5,-361.5 2015.5,-361.5 2015.5,-367.5 2009.5,-373.5 2003.5,-373.5"/>
<text text-anchor="middle" x="1950.5" y="-358.7" font-family="Courier New" font-size="11.00" fill="#c9d1d9">Watch Actor</text>
<text text-anchor="middle" x="1950.5" y="-346.7" font-family="Courier New" font-size="11.00" fill="#c9d1d9">improve (iter 2)</text>
</g>
<!-- u3&#45;&gt;u4 -->
<!-- u5 -->
<g id="node8" class="node">
<title>u5</title>
<path fill="#1a2e4a" stroke="#58a6ff" d="M2674.5,-373.5C2674.5,-373.5 2568.5,-373.5 2568.5,-373.5 2562.5,-373.5 2556.5,-367.5 2556.5,-361.5 2556.5,-361.5 2556.5,-349.5 2556.5,-349.5 2556.5,-343.5 2562.5,-337.5 2568.5,-337.5 2568.5,-337.5 2674.5,-337.5 2674.5,-337.5 2680.5,-337.5 2686.5,-343.5 2686.5,-349.5 2686.5,-349.5 2686.5,-361.5 2686.5,-361.5 2686.5,-367.5 2680.5,-373.5 2674.5,-373.5"/>
<text text-anchor="middle" x="2621.5" y="-358.7" font-family="Courier New" font-size="11.00" fill="#c9d1d9">Watch Critic</text>
<text text-anchor="middle" x="2621.5" y="-346.7" font-family="Courier New" font-size="11.00" fill="#c9d1d9">re&#45;score</text>
</g>
<!-- u4&#45;&gt;u5 -->
<!-- u6 -->
<g id="node9" class="node">
<title>u6</title>
<path fill="#1a2e4a" stroke="#58a6ff" d="M2975.5,-373.5C2975.5,-373.5 2861.5,-373.5 2861.5,-373.5 2855.5,-373.5 2849.5,-367.5 2849.5,-361.5 2849.5,-361.5 2849.5,-349.5 2849.5,-349.5 2849.5,-343.5 2855.5,-337.5 2861.5,-337.5 2861.5,-337.5 2975.5,-337.5 2975.5,-337.5 2981.5,-337.5 2987.5,-343.5 2987.5,-349.5 2987.5,-349.5 2987.5,-361.5 2987.5,-361.5 2987.5,-367.5 2981.5,-373.5 2975.5,-373.5"/>
<text text-anchor="middle" x="2918.5" y="-358.7" font-family="Courier New" font-size="11.00" fill="#c9d1d9">Space → pause</text>
<text text-anchor="middle" x="2918.5" y="-346.7" font-family="Courier New" font-size="11.00" fill="#c9d1d9">or loop continues…</text>
</g>
<!-- u5&#45;&gt;u6 -->
<!-- a2 -->
<g id="node11" class="node">
<title>a2</title>
<path fill="#0d2e1a" stroke="#3fb950" d="M641.5,-215.5C641.5,-215.5 535.5,-215.5 535.5,-215.5 529.5,-215.5 523.5,-209.5 523.5,-203.5 523.5,-203.5 523.5,-191.5 523.5,-191.5 523.5,-185.5 529.5,-179.5 535.5,-179.5 535.5,-179.5 641.5,-179.5 641.5,-179.5 647.5,-179.5 653.5,-185.5 653.5,-191.5 653.5,-191.5 653.5,-203.5 653.5,-203.5 653.5,-209.5 647.5,-215.5 641.5,-215.5"/>
<text text-anchor="middle" x="588.5" y="-200.7" font-family="Courier New" font-size="11.00" fill="#c9d1d9">actor_buf</text>
<text text-anchor="middle" x="588.5" y="-188.7" font-family="Courier New" font-size="11.00" fill="#c9d1d9">+= token (x N)</text>
</g>
<!-- a1&#45;&gt;a2 -->
<!-- o1 -->
<g id="node18" class="node">
<title>o1</title>
<path fill="#2e1a0a" stroke="#e3b341" d="M275.5,-311.5C275.5,-311.5 169.5,-311.5 169.5,-311.5 163.5,-311.5 157.5,-305.5 157.5,-299.5 157.5,-299.5 157.5,-287.5 157.5,-287.5 157.5,-281.5 163.5,-275.5 169.5,-275.5 169.5,-275.5 275.5,-275.5 275.5,-275.5 281.5,-275.5 287.5,-281.5 287.5,-287.5 287.5,-287.5 287.5,-299.5 287.5,-299.5 287.5,-305.5 281.5,-311.5 275.5,-311.5"/>
<text text-anchor="middle" x="222.5" y="-296.7" font-family="Courier New" font-size="11.00" fill="#c9d1d9">pre_warm()</text>
<text text-anchor="middle" x="222.5" y="-284.7" font-family="Courier New" font-size="11.00" fill="#c9d1d9">1 token ping</text>
</g>
<!-- a1&#45;&gt;o1 -->
<g id="edge18" class="edge">
<title>a1&#45;&gt;o1</title>
<path fill="none" stroke="#3fb950" d="M190.5,-231.65C190.5,-231.65 190.5,-268.42 190.5,-268.42"/>
<polygon fill="#3fb950" stroke="#3fb950" points="188.05,-268.42 190.5,-275.42 192.95,-268.42 188.05,-268.42"/>
</g>
<!-- o2 -->
<g id="node19" class="node">
<title>o2</title>
<path fill="#2e1a0a" stroke="#e3b341" d="M645.5,-315.5C645.5,-315.5 531.5,-315.5 531.5,-315.5 525.5,-315.5 519.5,-309.5 519.5,-303.5 519.5,-303.5 519.5,-271.5 519.5,-271.5 519.5,-265.5 525.5,-259.5 531.5,-259.5 531.5,-259.5 645.5,-259.5 645.5,-259.5 651.5,-259.5 657.5,-265.5 657.5,-271.5 657.5,-271.5 657.5,-303.5 657.5,-303.5 657.5,-309.5 651.5,-315.5 645.5,-315.5"/>
<text text-anchor="middle" x="588.5" y="-302.7" font-family="Courier New" font-size="11.00" fill="#c9d1d9">Actor iter 1</text>
<text text-anchor="middle" x="588.5" y="-290.7" font-family="Courier New" font-size="11.00" fill="#c9d1d9">POST /api/generate</text>
<text text-anchor="middle" x="588.5" y="-278.7" font-family="Courier New" font-size="11.00" fill="#c9d1d9">system=ACTOR_SYS</text>
<text text-anchor="middle" x="588.5" y="-266.7" font-family="Courier New" font-size="11.00" fill="#c9d1d9">temp=0.7 stream</text>
</g>
<!-- a1&#45;&gt;o2 -->
<g id="edge20" class="edge">
<title>a1&#45;&gt;o2</title>
<path fill="none" stroke="#3fb950" d="M255.5,-231.78C255.5,-247.45 255.5,-267.5 255.5,-267.5 255.5,-267.5 512.1,-267.5 512.1,-267.5"/>
<polygon fill="#3fb950" stroke="#3fb950" points="512.1,-269.95 519.1,-267.5 512.1,-265.05 512.1,-269.95"/>
<text text-anchor="middle" x="403.5" y="-260.3" font-family="Courier New" font-size="9.00" fill="#8b949e">spawn_actor(1)</text>
</g>
<!-- a3 -->
<g id="node12" class="node">
<title>a3</title>
<path fill="#0d2e1a" stroke="#3fb950" d="M934.5,-215.5C934.5,-215.5 828.5,-215.5 828.5,-215.5 822.5,-215.5 816.5,-209.5 816.5,-203.5 816.5,-203.5 816.5,-191.5 816.5,-191.5 816.5,-185.5 822.5,-179.5 828.5,-179.5 828.5,-179.5 934.5,-179.5 934.5,-179.5 940.5,-179.5 946.5,-185.5 946.5,-191.5 946.5,-191.5 946.5,-203.5 946.5,-203.5 946.5,-209.5 940.5,-215.5 934.5,-215.5"/>
<text text-anchor="middle" x="881.5" y="-200.7" font-family="Courier New" font-size="11.00" fill="#c9d1d9">TurnDone{Actor}</text>
<text text-anchor="middle" x="881.5" y="-188.7" font-family="Courier New" font-size="11.00" fill="#c9d1d9">hist.push(Turn)</text>
</g>
<!-- a2&#45;&gt;a3 -->
<!-- a4 -->
<g id="node13" class="node">
<title>a4</title>
<path fill="#0d2e1a" stroke="#3fb950" d="M1305.5,-215.5C1305.5,-215.5 1199.5,-215.5 1199.5,-215.5 1193.5,-215.5 1187.5,-209.5 1187.5,-203.5 1187.5,-203.5 1187.5,-191.5 1187.5,-191.5 1187.5,-185.5 1193.5,-179.5 1199.5,-179.5 1199.5,-179.5 1305.5,-179.5 1305.5,-179.5 1311.5,-179.5 1317.5,-185.5 1317.5,-191.5 1317.5,-191.5 1317.5,-203.5 1317.5,-203.5 1317.5,-209.5 1311.5,-215.5 1305.5,-215.5"/>
<text text-anchor="middle" x="1252.5" y="-200.7" font-family="Courier New" font-size="11.00" fill="#c9d1d9">critic_buf</text>
<text text-anchor="middle" x="1252.5" y="-188.7" font-family="Courier New" font-size="11.00" fill="#c9d1d9">+= token (x M)</text>
</g>
<!-- a3&#45;&gt;a4 -->
<!-- o3 -->
<g id="node20" class="node">
<title>o3</title>
<path fill="#2e1a0a" stroke="#e3b341" d="M1309.5,-315.5C1309.5,-315.5 1195.5,-315.5 1195.5,-315.5 1189.5,-315.5 1183.5,-309.5 1183.5,-303.5 1183.5,-303.5 1183.5,-271.5 1183.5,-271.5 1183.5,-265.5 1189.5,-259.5 1195.5,-259.5 1195.5,-259.5 1309.5,-259.5 1309.5,-259.5 1315.5,-259.5 1321.5,-265.5 1321.5,-271.5 1321.5,-271.5 1321.5,-303.5 1321.5,-303.5 1321.5,-309.5 1315.5,-315.5 1309.5,-315.5"/>
<text text-anchor="middle" x="1252.5" y="-302.7" font-family="Courier New" font-size="11.00" fill="#c9d1d9">Critic iter 1</text>
<text text-anchor="middle" x="1252.5" y="-290.7" font-family="Courier New" font-size="11.00" fill="#c9d1d9">POST /api/generate</text>
<text text-anchor="middle" x="1252.5" y="-278.7" font-family="Courier New" font-size="11.00" fill="#c9d1d9">system=CRITIC_SYS</text>
<text text-anchor="middle" x="1252.5" y="-266.7" font-family="Courier New" font-size="11.00" fill="#c9d1d9">temp=0.4 stream</text>
</g>
<!-- a3&#45;&gt;o3 -->
<g id="edge22" class="edge">
<title>a3&#45;&gt;o3</title>
<path fill="none" stroke="#3fb950" d="M881.5,-215.8C881.5,-239.6 881.5,-278.17 881.5,-278.17 881.5,-278.17 1176.15,-278.17 1176.15,-278.17"/>
<polygon fill="#3fb950" stroke="#3fb950" points="1176.15,-280.62 1183.15,-278.17 1176.15,-275.72 1176.15,-280.62"/>
<text text-anchor="middle" x="1065" y="-251.3" font-family="Courier New" font-size="9.00" fill="#8b949e">spawn_critic(1)</text>
</g>
<!-- a5 -->
<g id="node14" class="node">
<title>a5</title>
<path fill="#0d2e1a" stroke="#3fb950" d="M1598.5,-219.5C1598.5,-219.5 1492.5,-219.5 1492.5,-219.5 1486.5,-219.5 1480.5,-213.5 1480.5,-207.5 1480.5,-207.5 1480.5,-187.5 1480.5,-187.5 1480.5,-181.5 1486.5,-175.5 1492.5,-175.5 1492.5,-175.5 1598.5,-175.5 1598.5,-175.5 1604.5,-175.5 1610.5,-181.5 1610.5,-187.5 1610.5,-187.5 1610.5,-207.5 1610.5,-207.5 1610.5,-213.5 1604.5,-219.5 1598.5,-219.5"/>
<text text-anchor="middle" x="1545.5" y="-206.7" font-family="Courier New" font-size="11.00" fill="#c9d1d9">TurnDone{Critic}</text>
<text text-anchor="middle" x="1545.5" y="-194.7" font-family="Courier New" font-size="11.00" fill="#c9d1d9">extract_score()</text>
<text text-anchor="middle" x="1545.5" y="-182.7" font-family="Courier New" font-size="11.00" fill="#c9d1d9">iter += 1</text>
</g>
<!-- a4&#45;&gt;a5 -->
<!-- a6 -->
<g id="node15" class="node">
<title>a6</title>
<path fill="#0d2e1a" stroke="#3fb950" d="M2003.5,-215.5C2003.5,-215.5 1897.5,-215.5 1897.5,-215.5 1891.5,-215.5 1885.5,-209.5 1885.5,-203.5 1885.5,-203.5 1885.5,-191.5 1885.5,-191.5 1885.5,-185.5 1891.5,-179.5 1897.5,-179.5 1897.5,-179.5 2003.5,-179.5 2003.5,-179.5 2009.5,-179.5 2015.5,-185.5 2015.5,-191.5 2015.5,-191.5 2015.5,-203.5 2015.5,-203.5 2015.5,-209.5 2009.5,-215.5 2003.5,-215.5"/>
<text text-anchor="middle" x="1950.5" y="-200.7" font-family="Courier New" font-size="11.00" fill="#c9d1d9">actor_buf</text>
<text text-anchor="middle" x="1950.5" y="-188.7" font-family="Courier New" font-size="11.00" fill="#c9d1d9">+= token (x N2)</text>
</g>
<!-- a5&#45;&gt;a6 -->
<!-- o4 -->
<g id="node21" class="node">
<title>o4</title>
<path fill="#2e1a0a" stroke="#e3b341" d="M2014.5,-315.5C2014.5,-315.5 1886.5,-315.5 1886.5,-315.5 1880.5,-315.5 1874.5,-309.5 1874.5,-303.5 1874.5,-303.5 1874.5,-271.5 1874.5,-271.5 1874.5,-265.5 1880.5,-259.5 1886.5,-259.5 1886.5,-259.5 2014.5,-259.5 2014.5,-259.5 2020.5,-259.5 2026.5,-265.5 2026.5,-271.5 2026.5,-271.5 2026.5,-303.5 2026.5,-303.5 2026.5,-309.5 2020.5,-315.5 2014.5,-315.5"/>
<text text-anchor="middle" x="1950.5" y="-302.7" font-family="Courier New" font-size="11.00" fill="#c9d1d9">Actor iter 2</text>
<text text-anchor="middle" x="1950.5" y="-290.7" font-family="Courier New" font-size="11.00" fill="#c9d1d9">prompt includes</text>
<text text-anchor="middle" x="1950.5" y="-278.7" font-family="Courier New" font-size="11.00" fill="#c9d1d9">last critic feedback</text>
<text text-anchor="middle" x="1950.5" y="-266.7" font-family="Courier New" font-size="11.00" fill="#c9d1d9">temp=0.7 stream</text>
</g>
<!-- a5&#45;&gt;o4 -->
<g id="edge24" class="edge">
<title>a5&#45;&gt;o4</title>
<path fill="none" stroke="#3fb950" d="M1610.89,-203.5C1708.38,-203.5 1880.5,-203.5 1880.5,-203.5 1880.5,-203.5 1880.5,-252.06 1880.5,-252.06"/>
<polygon fill="#3fb950" stroke="#3fb950" points="1878.05,-252.06 1880.5,-259.06 1882.95,-252.06 1878.05,-252.06"/>
<text text-anchor="middle" x="1742.5" y="-256.3" font-family="Courier New" font-size="9.00" fill="#8b949e">spawn_actor(2)</text>
<text text-anchor="middle" x="1742.5" y="-246.3" font-family="Courier New" font-size="9.00" fill="#8b949e">with critic feedback</text>
</g>
<!-- a7 -->
<g id="node16" class="node">
<title>a7</title>
<path fill="#0d2e1a" stroke="#3fb950" d="M2303.5,-215.5C2303.5,-215.5 2197.5,-215.5 2197.5,-215.5 2191.5,-215.5 2185.5,-209.5 2185.5,-203.5 2185.5,-203.5 2185.5,-191.5 2185.5,-191.5 2185.5,-185.5 2191.5,-179.5 2197.5,-179.5 2197.5,-179.5 2303.5,-179.5 2303.5,-179.5 2309.5,-179.5 2315.5,-185.5 2315.5,-191.5 2315.5,-191.5 2315.5,-203.5 2315.5,-203.5 2315.5,-209.5 2309.5,-215.5 2303.5,-215.5"/>
<text text-anchor="middle" x="2250.5" y="-200.7" font-family="Courier New" font-size="11.00" fill="#c9d1d9">TurnDone{Actor}</text>
<text text-anchor="middle" x="2250.5" y="-188.7" font-family="Courier New" font-size="11.00" fill="#c9d1d9">hist.push(Turn)</text>
</g>
<!-- a6&#45;&gt;a7 -->
<!-- a8 -->
<g id="node17" class="node">
<title>a8</title>
<path fill="#0d2e1a" stroke="#3fb950" d="M2674.5,-215.5C2674.5,-215.5 2568.5,-215.5 2568.5,-215.5 2562.5,-215.5 2556.5,-209.5 2556.5,-203.5 2556.5,-203.5 2556.5,-183.5 2556.5,-183.5 2556.5,-177.5 2562.5,-171.5 2568.5,-171.5 2568.5,-171.5 2674.5,-171.5 2674.5,-171.5 2680.5,-171.5 2686.5,-177.5 2686.5,-183.5 2686.5,-183.5 2686.5,-203.5 2686.5,-203.5 2686.5,-209.5 2680.5,-215.5 2674.5,-215.5"/>
<text text-anchor="middle" x="2621.5" y="-202.7" font-family="Courier New" font-size="11.00" fill="#c9d1d9">critic_buf</text>
<text text-anchor="middle" x="2621.5" y="-190.7" font-family="Courier New" font-size="11.00" fill="#c9d1d9">+= token (x M2)</text>
<text text-anchor="middle" x="2621.5" y="-178.7" font-family="Courier New" font-size="11.00" fill="#c9d1d9">re&#45;score</text>
</g>
<!-- a7&#45;&gt;a8 -->
<!-- o5 -->
<g id="node22" class="node">
<title>o5</title>
<path fill="#2e1a0a" stroke="#e3b341" d="M2678.5,-315.5C2678.5,-315.5 2564.5,-315.5 2564.5,-315.5 2558.5,-315.5 2552.5,-309.5 2552.5,-303.5 2552.5,-303.5 2552.5,-271.5 2552.5,-271.5 2552.5,-265.5 2558.5,-259.5 2564.5,-259.5 2564.5,-259.5 2678.5,-259.5 2678.5,-259.5 2684.5,-259.5 2690.5,-265.5 2690.5,-271.5 2690.5,-271.5 2690.5,-303.5 2690.5,-303.5 2690.5,-309.5 2684.5,-315.5 2678.5,-315.5"/>
<text text-anchor="middle" x="2621.5" y="-302.7" font-family="Courier New" font-size="11.00" fill="#c9d1d9">Critic iter 2</text>
<text text-anchor="middle" x="2621.5" y="-290.7" font-family="Courier New" font-size="11.00" fill="#c9d1d9">POST /api/generate</text>
<text text-anchor="middle" x="2621.5" y="-278.7" font-family="Courier New" font-size="11.00" fill="#c9d1d9">Score: X/10</text>
<text text-anchor="middle" x="2621.5" y="-266.7" font-family="Courier New" font-size="11.00" fill="#c9d1d9">temp=0.4 stream</text>
</g>
<!-- a7&#45;&gt;o5 -->
<g id="edge26" class="edge">
<title>a7&#45;&gt;o5</title>
<path fill="none" stroke="#3fb950" d="M2250.5,-215.8C2250.5,-239.6 2250.5,-278.17 2250.5,-278.17 2250.5,-278.17 2545.15,-278.17 2545.15,-278.17"/>
<polygon fill="#3fb950" stroke="#3fb950" points="2545.15,-280.62 2552.15,-278.17 2545.15,-275.72 2545.15,-280.62"/>
<text text-anchor="middle" x="2434" y="-250.3" font-family="Courier New" font-size="9.00" fill="#8b949e">spawn_critic(2)</text>
</g>
<!-- o1&#45;&gt;a1 -->
<g id="edge19" class="edge">
<title>o1&#45;&gt;a1</title>
<path fill="none" stroke="#e3b341" stroke-dasharray="5,2" d="M222.5,-275.35C222.5,-275.35 222.5,-238.58 222.5,-238.58"/>
<polygon fill="#e3b341" stroke="#e3b341" points="224.95,-238.58 222.5,-231.58 220.05,-238.58 224.95,-238.58"/>
</g>
<!-- o1&#45;&gt;o2 -->
<!-- o2&#45;&gt;a2 -->
<g id="edge21" class="edge">
<title>o2&#45;&gt;a2</title>
<path fill="none" stroke="#e3b341" stroke-dasharray="5,2" d="M588.5,-259.02C588.5,-259.02 588.5,-222.6 588.5,-222.6"/>
<polygon fill="#e3b341" stroke="#e3b341" points="590.95,-222.6 588.5,-215.6 586.05,-222.6 590.95,-222.6"/>
</g>
<!-- o2&#45;&gt;o3 -->
<!-- o3&#45;&gt;a4 -->
<g id="edge23" class="edge">
<title>o3&#45;&gt;a4</title>
<path fill="none" stroke="#e3b341" stroke-dasharray="5,2" d="M1252.5,-259.02C1252.5,-259.02 1252.5,-222.6 1252.5,-222.6"/>
<polygon fill="#e3b341" stroke="#e3b341" points="1254.95,-222.6 1252.5,-215.6 1250.05,-222.6 1254.95,-222.6"/>
</g>
<!-- o3&#45;&gt;o4 -->
<!-- o4&#45;&gt;a6 -->
<g id="edge25" class="edge">
<title>o4&#45;&gt;a6</title>
<path fill="none" stroke="#e3b341" stroke-dasharray="5,2" d="M1950.5,-259.02C1950.5,-259.02 1950.5,-222.6 1950.5,-222.6"/>
<polygon fill="#e3b341" stroke="#e3b341" points="1952.95,-222.6 1950.5,-215.6 1948.05,-222.6 1952.95,-222.6"/>
</g>
<!-- o4&#45;&gt;o5 -->
<!-- o5&#45;&gt;a8 -->
<g id="edge27" class="edge">
<title>o5&#45;&gt;a8</title>
<path fill="none" stroke="#e3b341" stroke-dasharray="5,2" d="M2621.5,-259.3C2621.5,-259.3 2621.5,-222.71 2621.5,-222.71"/>
<polygon fill="#e3b341" stroke="#e3b341" points="2623.95,-222.71 2621.5,-215.71 2619.05,-222.71 2623.95,-222.71"/>
</g>
</g>
</svg>
