<?xml version="1.0" encoding="UTF-8" standalone="no"?>
<!DOCTYPE svg PUBLIC "-//W3C//DTD SVG 1.1//EN"
 "http://www.w3.org/Graphics/SVG/1.1/DTD/svg11.dtd">
<!-- Generated by graphviz version 2.43.0 (0)
 -->
<!-- Title: arch Pages: 1 -->
<svg width="555pt" height="835pt"
 viewBox="0.00 0.00 555.00 834.50" xmlns="http://www.w3.org/2000/svg" xmlns:xlink="http://www.w3.org/1999/xlink">
<g id="graph0" class="graph" transform="scale(1 1) rotate(0) translate(36 798.5)">
<title>arch</title>
<polygon fill="#0d1117" stroke="transparent" points="-36,36 -36,-798.5 519,-798.5 519,36 -36,36"/>
<text text-anchor="middle" x="241.5" y="-744.1" font-family="Courier New" font-size="18.00" fill="#c9d1d9">duel — Module Architecture</text>
<g id="clust1" class="cluster">
<title>cluster_binary</title>
<path fill="#161b22" stroke="#21262d" d="M20,-169.5C20,-169.5 417,-169.5 417,-169.5 423,-169.5 429,-175.5 429,-181.5 429,-181.5 429,-714.5 429,-714.5 429,-720.5 423,-726.5 417,-726.5 417,-726.5 20,-726.5 20,-726.5 14,-726.5 8,-720.5 8,-714.5 8,-714.5 8,-181.5 8,-181.5 8,-175.5 14,-169.5 20,-169.5"/>
<text text-anchor="middle" x="218.5" y="-711.3" font-family="Courier New" font-size="14.00" fill="#c9d1d9">duel binary</text>
</g>
<g id="clust2" class="cluster">
<title>cluster_external</title>
<path fill="#0d1117" stroke="#21262d" d="M75,-8C75,-8 463,-8 463,-8 469,-8 475,-14 475,-20 475,-20 475,-117.5 475,-117.5 475,-123.5 469,-129.5 463,-129.5 463,-129.5 75,-129.5 75,-129.5 69,-129.5 63,-123.5 63,-117.5 63,-117.5 63,-20 63,-20 63,-14 69,-8 75,-8"/>
<text text-anchor="middle" x="269" y="-114.3" font-family="Courier New" font-size="14.00" fill="#c9d1d9">External Systems</text>
</g>
<!-- main -->
<g id="node1" class="node">
<title>main</title>
<path fill="#1f4068" stroke="#58a6ff" d="M250,-695.5C250,-695.5 130,-695.5 130,-695.5 124,-695.5 118,-689.5 118,-683.5 118,-683.5 118,-621.5 118,-621.5 118,-615.5 124,-609.5 130,-609.5 130,-609.5 250,-609.5 250,-609.5 256,-609.5 262,-615.5 262,-621.5 262,-621.5 262,-683.5 262,-683.5 262,-689.5 256,-695.5 250,-695.5"/>
<text text-anchor="middle" x="190" y="-681.9" font-family="Courier New" font-size="12.00" fill="#c9d1d9">main.rs</text>
<text text-anchor="middle" x="190" y="-668.9" font-family="Courier New" font-size="12.00" fill="#c9d1d9">─────────────</text>
<text text-anchor="middle" x="190" y="-655.9" font-family="Courier New" font-size="12.00" fill="#c9d1d9">tokio main</text>
<text text-anchor="middle" x="190" y="-642.9" font-family="Courier New" font-size="12.00" fill="#c9d1d9">event loop (40ms)</text>
<text text-anchor="middle" x="190" y="-629.9" font-family="Courier New" font-size="12.00" fill="#c9d1d9">terminal setup</text>
<text text-anchor="middle" x="190" y="-616.9" font-family="Courier New" font-size="12.00" fill="#c9d1d9">panic hook</text>
</g>
<!-- app -->
<g id="node2" class="node">
<title>app</title>
<path fill="#1f4068" stroke="#58a6ff" d="M326,-418.5C326,-418.5 198,-418.5 198,-418.5 192,-418.5 186,-412.5 186,-406.5 186,-406.5 186,-344.5 186,-344.5 186,-338.5 192,-332.5 198,-332.5 198,-332.5 326,-332.5 326,-332.5 332,-332.5 338,-338.5 338,-344.5 338,-344.5 338,-406.5 338,-406.5 338,-412.5 332,-418.5 326,-418.5"/>
<text text-anchor="middle" x="262" y="-404.9" font-family="Courier New" font-size="12.00" fill="#c9d1d9">app.rs</text>
<text text-anchor="middle" x="262" y="-391.9" font-family="Courier New" font-size="12.00" fill="#c9d1d9">─────────────</text>
<text text-anchor="middle" x="262" y="-378.9" font-family="Courier New" font-size="12.00" fill="#c9d1d9">App state</text>
<text text-anchor="middle" x="262" y="-365.9" font-family="Courier New" font-size="12.00" fill="#c9d1d9">LoopState machine</text>
<text text-anchor="middle" x="262" y="-352.9" font-family="Courier New" font-size="12.00" fill="#c9d1d9">AppCommand enum</text>
<text text-anchor="middle" x="262" y="-339.9" font-family="Courier New" font-size="12.00" fill="#c9d1d9">spawn_actor/critic</text>
</g>
<!-- main&#45;&gt;app -->
<g id="edge1" class="edge">
<title>main&#45;&gt;app</title>
<path fill="none" stroke="#58a6ff" d="M186.3,-609.43C184.49,-573.31 185.13,-520.29 199,-476.5 199.25,-475.71 215.1,-450.55 230.84,-425.67"/>
<polygon fill="#58a6ff" stroke="#58a6ff" points="233.35,-426.93 235.27,-418.67 228.62,-423.94 233.35,-426.93"/>
<text text-anchor="middle" x="244.5" y="-522.5" font-family="Courier New" font-size="10.00" fill="#8b949e">creates App</text>
<text text-anchor="middle" x="244.5" y="-511.5" font-family="Courier New" font-size="10.00" fill="#8b949e">spawns gpu task</text>
</g>
<!-- ui -->
<g id="node4" class="node">
<title>ui</title>
<path fill="#3b1f4e" stroke="#bc8cff" d="M141.5,-562.5C141.5,-562.5 28.5,-562.5 28.5,-562.5 22.5,-562.5 16.5,-556.5 16.5,-550.5 16.5,-550.5 16.5,-488.5 16.5,-488.5 16.5,-482.5 22.5,-476.5 28.5,-476.5 28.5,-476.5 141.5,-476.5 141.5,-476.5 147.5,-476.5 153.5,-482.5 153.5,-488.5 153.5,-488.5 153.5,-550.5 153.5,-550.5 153.5,-556.5 147.5,-562.5 141.5,-562.5"/>
<text text-anchor="middle" x="85" y="-548.9" font-family="Courier New" font-size="12.00" fill="#c9d1d9">ui.rs</text>
<text text-anchor="middle" x="85" y="-535.9" font-family="Courier New" font-size="12.00" fill="#c9d1d9">─────────────</text>
<text text-anchor="middle" x="85" y="-522.9" font-family="Courier New" font-size="12.00" fill="#c9d1d9">draw(Frame, App)</text>
<text text-anchor="middle" x="85" y="-509.9" font-family="Courier New" font-size="12.00" fill="#c9d1d9">draw_prompt()</text>
<text text-anchor="middle" x="85" y="-496.9" font-family="Courier New" font-size="12.00" fill="#c9d1d9">draw_duel()</text>
<text text-anchor="middle" x="85" y="-483.9" font-family="Courier New" font-size="12.00" fill="#c9d1d9">5 themes + glow</text>
</g>
<!-- main&#45;&gt;ui -->
<g id="edge3" class="edge">
<title>main&#45;&gt;ui</title>
<path fill="none" stroke="#58a6ff" d="M117.58,-616.58C108.43,-609.43 100.14,-601.1 94,-591.5 90.02,-585.27 87.4,-578.11 85.73,-570.78"/>
<polygon fill="#58a6ff" stroke="#58a6ff" points="88.46,-570.15 84.26,-562.79 82.95,-571.16 88.46,-570.15"/>
<text text-anchor="middle" x="139.5" y="-583.5" font-family="Courier New" font-size="10.00" fill="#8b949e">terminal.draw()</text>
</g>
<!-- gpu -->
<g id="node5" class="node">
<title>gpu</title>
<path fill="#4a2b0a" stroke="#d29922" d="M409,-556C409,-556 311,-556 311,-556 305,-556 299,-550 299,-544 299,-544 299,-495 299,-495 299,-489 305,-483 311,-483 311,-483 409,-483 409,-483 415,-483 421,-489 421,-495 421,-495 421,-544 421,-544 421,-550 415,-556 409,-556"/>
<text text-anchor="middle" x="360" y="-542.4" font-family="Courier New" font-size="12.00" fill="#c9d1d9">gpu.rs</text>
<text text-anchor="middle" x="360" y="-529.4" font-family="Courier New" font-size="12.00" fill="#c9d1d9">─────────────</text>
<text text-anchor="middle" x="360" y="-516.4" font-family="Courier New" font-size="12.00" fill="#c9d1d9">poll_loop() 5s</text>
<text text-anchor="middle" x="360" y="-503.4" font-family="Courier New" font-size="12.00" fill="#c9d1d9">nvidia&#45;smi CSV</text>
<text text-anchor="middle" x="360" y="-490.4" font-family="Courier New" font-size="12.00" fill="#c9d1d9">GpuInfo struct</text>
</g>
<!-- main&#45;&gt;gpu -->
<g id="edge2" class="edge">
<title>main&#45;&gt;gpu</title>
<path fill="none" stroke="#58a6ff" d="M244.72,-609.33C264.87,-593.81 287.62,-576.27 307.56,-560.91"/>
<polygon fill="#58a6ff" stroke="#58a6ff" points="309.3,-563.1 313.93,-556 305.88,-558.67 309.3,-563.1"/>
<text text-anchor="middle" x="332.5" y="-583.5" font-family="Courier New" font-size="10.00" fill="#8b949e">spawn poll_loop()</text>
</g>
<!-- ollama -->
<g id="node3" class="node">
<title>ollama</title>
<path fill="#0d3b2e" stroke="#3fb950" d="M256,-263.5C256,-263.5 106,-263.5 106,-263.5 100,-263.5 94,-257.5 94,-251.5 94,-251.5 94,-189.5 94,-189.5 94,-183.5 100,-177.5 106,-177.5 106,-177.5 256,-177.5 256,-177.5 262,-177.5 268,-183.5 268,-189.5 268,-189.5 268,-251.5 268,-251.5 268,-257.5 262,-263.5 256,-263.5"/>
<text text-anchor="middle" x="181" y="-249.9" font-family="Courier New" font-size="12.00" fill="#c9d1d9">ollama.rs</text>
<text text-anchor="middle" x="181" y="-236.9" font-family="Courier New" font-size="12.00" fill="#c9d1d9">─────────────</text>
<text text-anchor="middle" x="181" y="-223.9" font-family="Courier New" font-size="12.00" fill="#c9d1d9">pre_warm()</text>
<text text-anchor="middle" x="181" y="-210.9" font-family="Courier New" font-size="12.00" fill="#c9d1d9">run_actor()</text>
<text text-anchor="middle" x="181" y="-197.9" font-family="Courier New" font-size="12.00" fill="#c9d1d9">run_critic()</text>
<text text-anchor="middle" x="181" y="-184.9" font-family="Courier New" font-size="12.00" fill="#c9d1d9">do_stream() → chunk()</text>
</g>
<!-- app&#45;&gt;ollama -->
<g id="edge4" class="edge">
<title>app&#45;&gt;ollama</title>
<path fill="none" stroke="#58a6ff" d="M185.9,-335.33C170,-326.43 157.3,-318.43 155,-314.5 147.35,-301.44 148.33,-286.02 152.8,-271.54"/>
<polygon fill="#58a6ff" stroke="#58a6ff" points="155.58,-272.09 155.62,-263.61 150.3,-270.21 155.58,-272.09"/>
<text text-anchor="middle" x="197.5" y="-301" font-family="Courier New" font-size="10.00" fill="#8b949e">spawn_actor()</text>
<text text-anchor="middle" x="197.5" y="-290" font-family="Courier New" font-size="10.00" fill="#8b949e">spawn_critic()</text>
</g>
<!-- ollama&#45;&gt;app -->
<g id="edge5" class="edge">
<title>ollama&#45;&gt;app</title>
<path fill="none" stroke="#58a6ff" stroke-dasharray="5,2" d="M227.84,-263.81C232.42,-269.42 236.61,-275.36 240,-281.5 247.24,-294.61 252.11,-310.04 255.38,-324.52"/>
<polygon fill="#58a6ff" stroke="#58a6ff" points="252.66,-325.19 257.04,-332.45 258.14,-324.05 252.66,-325.19"/>
<text text-anchor="middle" x="304.5" y="-306.5" font-family="Courier New" font-size="10.00" fill="#8b949e">AppCommand</text>
<text text-anchor="middle" x="304.5" y="-295.5" font-family="Courier New" font-size="10.00" fill="#8b949e">(Token, TurnDone,</text>
<text text-anchor="middle" x="304.5" y="-284.5" font-family="Courier New" font-size="10.00" fill="#8b949e">ModelReady)</text>
</g>
<!-- ollama_api -->
<g id="node7" class="node">
<title>ollama_api</title>
<path fill="#1a2a1a" stroke="#3fb950" d="M290.5,-90.8C290.5,-94.91 241.42,-98.25 181,-98.25 120.58,-98.25 71.5,-94.91 71.5,-90.8 71.5,-90.8 71.5,-23.7 71.5,-23.7 71.5,-19.59 120.58,-16.25 181,-16.25 241.42,-16.25 290.5,-19.59 290.5,-23.7 290.5,-23.7 290.5,-90.8 290.5,-90.8"/>
<path fill="none" stroke="#3fb950" d="M290.5,-90.8C290.5,-86.68 241.42,-83.34 181,-83.34 120.58,-83.34 71.5,-86.68 71.5,-90.8"/>
<text text-anchor="middle" x="181" y="-73.65" font-family="Courier New" font-size="12.00" fill="#c9d1d9">Ollama API</text>
<text text-anchor="middle" x="181" y="-60.65" font-family="Courier New" font-size="12.00" fill="#c9d1d9">http://127.0.0.1:11434</text>
<text text-anchor="middle" x="181" y="-47.65" font-family="Courier New" font-size="12.00" fill="#c9d1d9">/api/generate (stream:true)</text>
<text text-anchor="middle" x="181" y="-34.65" font-family="Courier New" font-size="12.00" fill="#c9d1d9">qwen3.5:4b</text>
</g>
<!-- ollama&#45;&gt;ollama_api -->
<g id="edge9" class="edge">
<title>ollama&#45;&gt;ollama_api</title>
<path fill="none" stroke="#58a6ff" d="M181,-177.13C181,-155.44 181,-128.94 181,-106.47"/>
<polygon fill="#58a6ff" stroke="#58a6ff" points="183.8,-106.39 181,-98.39 178.2,-106.39 183.8,-106.39"/>
<text text-anchor="middle" x="235.5" y="-151.5" font-family="Courier New" font-size="10.00" fill="#8b949e">POST /api/generate</text>
<text text-anchor="middle" x="235.5" y="-140.5" font-family="Courier New" font-size="10.00" fill="#8b949e">stream ndjson</text>
</g>
<!-- ui&#45;&gt;app -->
<g id="edge8" class="edge">
<title>ui&#45;&gt;app</title>
<path fill="none" stroke="#58a6ff" d="M94.65,-476.25C99.78,-461.96 107.5,-446.99 119,-436.5 138.94,-418.31 151.93,-428.51 177,-418.5 177.45,-418.32 177.91,-418.14 178.36,-417.95"/>
<polygon fill="#58a6ff" stroke="#58a6ff" points="179.49,-420.52 185.8,-414.86 177.34,-415.35 179.49,-420.52"/>
<text text-anchor="middle" x="164.5" y="-450.5" font-family="Courier New" font-size="10.00" fill="#8b949e">reads App state</text>
<text text-anchor="middle" x="164.5" y="-439.5" font-family="Courier New" font-size="10.00" fill="#8b949e">(read&#45;only)</text>
</g>
<!-- util -->
<g id="node6" class="node">
<title>util</title>
<path fill="#21262d" stroke="#6e7681" d="M156,-412C156,-412 28,-412 28,-412 22,-412 16,-406 16,-400 16,-400 16,-351 16,-351 16,-345 22,-339 28,-339 28,-339 156,-339 156,-339 162,-339 168,-345 168,-351 168,-351 168,-400 168,-400 168,-406 162,-412 156,-412"/>
<text text-anchor="middle" x="92" y="-398.4" font-family="Courier New" font-size="12.00" fill="#c9d1d9">util.rs</text>
<text text-anchor="middle" x="92" y="-385.4" font-family="Courier New" font-size="12.00" fill="#c9d1d9">─────────────</text>
<text text-anchor="middle" x="92" y="-372.4" font-family="Courier New" font-size="12.00" fill="#c9d1d9">truncate()</text>
<text text-anchor="middle" x="92" y="-359.4" font-family="Courier New" font-size="12.00" fill="#c9d1d9">truncate_display()</text>
<text text-anchor="middle" x="92" y="-346.4" font-family="Courier New" font-size="12.00" fill="#c9d1d9">Unicode&#45;width safe</text>
</g>
<!-- ui&#45;&gt;util -->
<g id="edge7" class="edge">
<title>ui&#45;&gt;util</title>
<path fill="none" stroke="#58a6ff" d="M41.37,-476.09C33.67,-463.76 29.62,-449.97 35,-436.5 37.53,-430.17 41.08,-424.13 45.18,-418.48"/>
<polygon fill="#58a6ff" stroke="#58a6ff" points="47.49,-420.06 50.22,-412.04 43.09,-416.61 47.49,-420.06"/>
<text text-anchor="middle" x="65.5" y="-445" font-family="Courier New" font-size="10.00" fill="#8b949e">truncate()</text>
</g>
<!-- gpu&#45;&gt;app -->
<g id="edge6" class="edge">
<title>gpu&#45;&gt;app</title>
<path fill="none" stroke="#58a6ff" stroke-dasharray="5,2" d="M326.14,-482.76C319.47,-475.01 312.75,-466.69 307,-458.5 299.88,-448.37 293,-436.99 286.86,-426.01"/>
<polygon fill="#58a6ff" stroke="#58a6ff" points="289.24,-424.53 282.94,-418.87 284.34,-427.23 289.24,-424.53"/>
<text text-anchor="middle" x="340.5" y="-450.5" font-family="Courier New" font-size="10.00" fill="#8b949e">AppCommand</text>
<text text-anchor="middle" x="340.5" y="-439.5" font-family="Courier New" font-size="10.00" fill="#8b949e">(GpuStatus)</text>
</g>
<!-- nvidia -->
<g id="node8" class="node">
<title>nvidia</title>
<path fill="#2a1a1a" stroke="#d29922" d="M467.5,-90.8C467.5,-94.91 431.87,-98.25 388,-98.25 344.13,-98.25 308.5,-94.91 308.5,-90.8 308.5,-90.8 308.5,-23.7 308.5,-23.7 308.5,-19.59 344.13,-16.25 388,-16.25 431.87,-16.25 467.5,-19.59 467.5,-23.7 467.5,-23.7 467.5,-90.8 467.5,-90.8"/>
<path fill="none" stroke="#d29922" d="M467.5,-90.8C467.5,-86.68 431.87,-83.34 388,-83.34 344.13,-83.34 308.5,-86.68 308.5,-90.8"/>
<text text-anchor="middle" x="388" y="-73.65" font-family="Courier New" font-size="12.00" fill="#c9d1d9">nvidia&#45;smi</text>
<text text-anchor="middle" x="388" y="-60.65" font-family="Courier New" font-size="12.00" fill="#c9d1d9">&#45;&#45;query&#45;gpu CSV</text>
<text text-anchor="middle" x="388" y="-47.65" font-family="Courier New" font-size="12.00" fill="#c9d1d9">RTX 5080 + RTX 3080</text>
<text text-anchor="middle" x="388" y="-34.65" font-family="Courier New" font-size="12.00" fill="#c9d1d9">~26.5 GB VRAM</text>
</g>
<!-- gpu&#45;&gt;nvidia -->
<g id="edge10" class="edge">
<title>gpu&#45;&gt;nvidia</title>
<path fill="none" stroke="#58a6ff" d="M369.51,-482.86C371.3,-474.9 372.94,-466.45 374,-458.5 390.73,-332.57 390.71,-182.52 389.33,-106.92"/>
<polygon fill="#58a6ff" stroke="#58a6ff" points="392.12,-106.46 389.16,-98.52 386.52,-106.57 392.12,-106.46"/>
<text text-anchor="middle" x="417.5" y="-301" font-family="Courier New" font-size="10.00" fill="#8b949e">subprocess</text>
<text text-anchor="middle" x="417.5" y="-290" font-family="Courier New" font-size="10.00" fill="#8b949e">nvidia&#45;smi</text>
</g>
</g>
</svg>
