<?xml version="1.0" encoding="UTF-8" standalone="no"?>
<!DOCTYPE svg PUBLIC "-//W3C//DTD SVG 1.1//EN"
 "http://www.w3.org/Graphics/SVG/1.1/DTD/svg11.dtd">
<!-- Generated by graphviz version 2.43.0 (0)
 -->
<!-- Title: data_flow Pages: 1 -->
<svg width="945pt" height="619pt"
 viewBox="0.00 0.00 945.40 619.40" xmlns="http://www.w3.org/2000/svg" xmlns:xlink="http://www.w3.org/1999/xlink">
<g id="graph0" class="graph" transform="scale(1 1) rotate(0) translate(43.2 576.2)">
<title>data_flow</title>
<polygon fill="#0d1117" stroke="transparent" points="-43.2,43.2 -43.2,-576.2 902.2,-576.2 902.2,43.2 -43.2,43.2"/>
<text text-anchor="middle" x="429.5" y="-514.6" font-family="Courier New" font-size="18.00" fill="#c9d1d9">duel — AppCommand Channel Data Flow</text>
<g id="clust1" class="cluster">
<title>cluster_producers</title>
<path fill="#0d1a0d" stroke="#3fb950" d="M14,-95C14,-95 157,-95 157,-95 163,-95 169,-101 169,-107 169,-107 169,-406 169,-406 169,-412 163,-418 157,-418 157,-418 14,-418 14,-418 8,-418 2,-412 2,-406 2,-406 2,-107 2,-107 2,-101 8,-95 14,-95"/>
<text text-anchor="middle" x="85.5" y="-404.4" font-family="Courier New" font-size="12.00" fill="#c9d1d9">Async Producers</text>
<text text-anchor="middle" x="85.5" y="-391.4" font-family="Courier New" font-size="12.00" fill="#c9d1d9">(tokio::spawn tasks)</text>
</g>
<g id="clust2" class="cluster">
<title>cluster_channel</title>
<path fill="#1a1a2e" stroke="#58a6ff" d="M359,-8C359,-8 523,-8 523,-8 529,-8 535,-14 535,-20 535,-20 535,-485 535,-485 535,-491 529,-497 523,-497 523,-497 359,-497 359,-497 353,-497 347,-491 347,-485 347,-485 347,-20 347,-20 347,-14 353,-8 359,-8"/>
<text text-anchor="middle" x="441" y="-483.4" font-family="Courier New" font-size="12.00" fill="#c9d1d9">mpsc::channel</text>
<text text-anchor="middle" x="441" y="-470.4" font-family="Courier New" font-size="12.00" fill="#c9d1d9">(capacity = 256)</text>
</g>
<g id="clust3" class="cluster">
<title>cluster_consumer</title>
<path fill="#1a0d1a" stroke="#bc8cff" d="M662,-8C662,-8 839,-8 839,-8 845,-8 851,-14 851,-20 851,-20 851,-485 851,-485 851,-491 845,-497 839,-497 839,-497 662,-497 662,-497 656,-497 650,-491 650,-485 650,-485 650,-20 650,-20 650,-14 656,-8 662,-8"/>
<text text-anchor="middle" x="750.5" y="-483.4" font-family="Courier New" font-size="12.00" fill="#c9d1d9">App::handle_command()</text>
<text text-anchor="middle" x="750.5" y="-470.4" font-family="Courier New" font-size="12.00" fill="#c9d1d9">(main event loop)</text>
</g>
<!-- prewarm -->
<g id="node1" class="node">
<title>prewarm</title>
<path fill="#1a2e1a" stroke="#3fb950" d="M115,-376C115,-376 55,-376 55,-376 49,-376 43,-370 43,-364 43,-364 43,-352 43,-352 43,-346 49,-340 55,-340 55,-340 115,-340 115,-340 121,-340 127,-346 127,-352 127,-352 127,-364 127,-364 127,-370 121,-376 115,-376"/>
<text text-anchor="middle" x="85" y="-361.2" font-family="Courier New" font-size="11.00" fill="#c9d1d9">pre_warm()</text>
<text text-anchor="middle" x="85" y="-349.2" font-family="Courier New" font-size="11.00" fill="#c9d1d9">task</text>
</g>
<!-- cmd_ready -->
<g id="node7" class="node">
<title>cmd_ready</title>
<path fill="#0d1a3b" stroke="#58a6ff" d="M471,-455C471,-455 411,-455 411,-455 405,-455 399,-449 399,-443 399,-443 399,-431 399,-431 399,-425 405,-419 411,-419 411,-419 471,-419 471,-419 477,-419 483,-425 483,-431 483,-431 483,-443 483,-443 483,-449 477,-455 471,-455"/>
<text text-anchor="middle" x="441" y="-434.2" font-family="Courier New" font-size="11.00" fill="#c9d1d9">ModelReady</text>
</g>
<!-- prewarm&#45;&gt;cmd_ready -->
<g id="edge1" class="edge">
<title>prewarm&#45;&gt;cmd_ready</title>
<path fill="none" stroke="#3fb950" d="M118.25,-376.05C145.93,-390.61 187.35,-410.21 226,-420 281.15,-433.97 346.63,-437.32 390.5,-437.76"/>
<polygon fill="#3fb950" stroke="#3fb950" points="390.69,-440.56 398.71,-437.8 390.72,-434.96 390.69,-440.56"/>
</g>
<!-- cmd_error -->
<g id="node8" class="node">
<title>cmd_error</title>
<path fill="#3b0a0a" stroke="#f85149" d="M494.5,-376C494.5,-376 387.5,-376 387.5,-376 381.5,-376 375.5,-370 375.5,-364 375.5,-364 375.5,-352 375.5,-352 375.5,-346 381.5,-340 387.5,-340 387.5,-340 494.5,-340 494.5,-340 500.5,-340 506.5,-346 506.5,-352 506.5,-352 506.5,-364 506.5,-364 506.5,-370 500.5,-376 494.5,-376"/>
<text text-anchor="middle" x="441" y="-355.2" font-family="Courier New" font-size="11.00" fill="#c9d1d9">LoopError(String)</text>
</g>
<!-- prewarm&#45;&gt;cmd_error -->
<g id="edge2" class="edge">
<title>prewarm&#45;&gt;cmd_error</title>
<path fill="none" stroke="#f85149" stroke-dasharray="5,2" d="M127.29,-369.25C154.97,-376.19 192.38,-384.44 226,-388 273.14,-392.99 325.88,-385.75 367.21,-377.13"/>
<polygon fill="#f85149" stroke="#f85149" points="367.82,-379.86 375.05,-375.45 366.64,-374.39 367.82,-379.86"/>
</g>
<!-- actor_t -->
<g id="node2" class="node">
<title>actor_t</title>
<path fill="#1a2e1a" stroke="#3fb950" d="M118.5,-218C118.5,-218 51.5,-218 51.5,-218 45.5,-218 39.5,-212 39.5,-206 39.5,-206 39.5,-194 39.5,-194 39.5,-188 45.5,-182 51.5,-182 51.5,-182 118.5,-182 118.5,-182 124.5,-182 130.5,-188 130.5,-194 130.5,-194 130.5,-206 130.5,-206 130.5,-212 124.5,-218 118.5,-218"/>
<text text-anchor="middle" x="85" y="-203.2" font-family="Courier New" font-size="11.00" fill="#c9d1d9">run_actor()</text>
<text text-anchor="middle" x="85" y="-191.2" font-family="Courier New" font-size="11.00" fill="#c9d1d9">task</text>
</g>
<!-- cmd_token -->
<g id="node5" class="node">
<title>cmd_token</title>
<path fill="#0d1a3b" stroke="#58a6ff" d="M508,-297C508,-297 374,-297 374,-297 368,-297 362,-291 362,-285 362,-285 362,-273 362,-273 362,-267 368,-261 374,-261 374,-261 508,-261 508,-261 514,-261 520,-267 520,-273 520,-273 520,-285 520,-285 520,-291 514,-297 508,-297"/>
<text text-anchor="middle" x="441" y="-276.2" font-family="Courier New" font-size="11.00" fill="#c9d1d9">Token { role, token }</text>
</g>
<!-- actor_t&#45;&gt;cmd_token -->
<g id="edge3" class="edge">
<title>actor_t&#45;&gt;cmd_token</title>
<path fill="none" stroke="#3fb950" d="M119.25,-181.84C161.2,-161.57 234.55,-135.06 290,-163 328.02,-182.16 313.5,-213.72 347,-240 355.65,-246.78 365.64,-252.59 375.81,-257.48"/>
<polygon fill="#3fb950" stroke="#3fb950" points="374.78,-260.09 383.22,-260.88 377.12,-255 374.78,-260.09"/>
<text text-anchor="middle" x="258" y="-165.8" font-family="Courier New" font-size="9.00" fill="#8b949e">per token</text>
</g>
<!-- cmd_turndone -->
<g id="node6" class="node">
<title>cmd_turndone</title>
<path fill="#0d1a3b" stroke="#58a6ff" d="M491.5,-218C491.5,-218 390.5,-218 390.5,-218 384.5,-218 378.5,-212 378.5,-206 378.5,-206 378.5,-186 378.5,-186 378.5,-180 384.5,-174 390.5,-174 390.5,-174 491.5,-174 491.5,-174 497.5,-174 503.5,-180 503.5,-186 503.5,-186 503.5,-206 503.5,-206 503.5,-212 497.5,-218 491.5,-218"/>
<text text-anchor="middle" x="441" y="-205.2" font-family="Courier New" font-size="11.00" fill="#c9d1d9">TurnDone { role,</text>
<text text-anchor="middle" x="441" y="-193.2" font-family="Courier New" font-size="11.00" fill="#c9d1d9">eval_count,</text>
<text text-anchor="middle" x="441" y="-181.2" font-family="Courier New" font-size="11.00" fill="#c9d1d9">duration_ms }</text>
</g>
<!-- actor_t&#45;&gt;cmd_turndone -->
<g id="edge4" class="edge">
<title>actor_t&#45;&gt;cmd_turndone</title>
<path fill="none" stroke="#3fb950" d="M130.6,-182.39C143.49,-176.43 157.24,-169.18 169,-161 198.15,-140.72 193.13,-118.45 226,-105 252.33,-94.23 263.28,-95.25 290,-105 321.11,-116.35 319.05,-135.23 347,-153 356.76,-159.21 367.55,-165.03 378.23,-170.27"/>
<polygon fill="#3fb950" stroke="#3fb950" points="377.17,-172.87 385.6,-173.8 379.59,-167.82 377.17,-172.87"/>
<text text-anchor="middle" x="258" y="-107.8" font-family="Courier New" font-size="9.00" fill="#8b949e">on done:true</text>
</g>
<!-- actor_t&#45;&gt;cmd_error -->
<g id="edge5" class="edge">
<title>actor_t&#45;&gt;cmd_error</title>
<path fill="none" stroke="#f85149" stroke-dasharray="5,2" d="M129.01,-218.01C142.25,-224.27 156.59,-231.79 169,-240 197.1,-258.6 196.65,-273.44 226,-290 270.1,-314.89 324.56,-332.03 367.5,-342.88"/>
<polygon fill="#f85149" stroke="#f85149" points="366.94,-345.63 375.37,-344.83 368.28,-340.19 366.94,-345.63"/>
</g>
<!-- critic_t -->
<g id="node3" class="node">
<title>critic_t</title>
<path fill="#1a2e1a" stroke="#3fb950" d="M122,-297C122,-297 48,-297 48,-297 42,-297 36,-291 36,-285 36,-285 36,-273 36,-273 36,-267 42,-261 48,-261 48,-261 122,-261 122,-261 128,-261 134,-267 134,-273 134,-273 134,-285 134,-285 134,-291 128,-297 122,-297"/>
<text text-anchor="middle" x="85" y="-282.2" font-family="Courier New" font-size="11.00" fill="#c9d1d9">run_critic()</text>
<text text-anchor="middle" x="85" y="-270.2" font-family="Courier New" font-size="11.00" fill="#c9d1d9">task</text>
</g>
<!-- critic_t&#45;&gt;cmd_token -->
<g id="edge6" class="edge">
<title>critic_t&#45;&gt;cmd_token</title>
<path fill="none" stroke="#e3b341" d="M134.11,-279C190.33,-279 284.45,-279 353.47,-279"/>
<polygon fill="#e3b341" stroke="#e3b341" points="353.76,-281.8 361.76,-279 353.76,-276.2 353.76,-281.8"/>
<text text-anchor="middle" x="258" y="-281.8" font-family="Courier New" font-size="9.00" fill="#8b949e">per token</text>
</g>
<!-- critic_t&#45;&gt;cmd_turndone -->
<g id="edge7" class="edge">
<title>critic_t&#45;&gt;cmd_turndone</title>
<path fill="none" stroke="#e3b341" d="M134.11,-267.72C195.09,-253.42 300.65,-228.67 370.41,-212.32"/>
<polygon fill="#e3b341" stroke="#e3b341" points="371.16,-215.02 378.31,-210.46 369.88,-209.56 371.16,-215.02"/>
<text text-anchor="middle" x="258" y="-246.8" font-family="Courier New" font-size="9.00" fill="#8b949e">on done:true</text>
</g>
<!-- critic_t&#45;&gt;cmd_error -->
<g id="edge8" class="edge">
<title>critic_t&#45;&gt;cmd_error</title>
<path fill="none" stroke="#f85149" stroke-dasharray="5,2" d="M124.24,-297.01C158.39,-312.78 206,-333.96 226,-339 272.12,-350.61 325.38,-355.37 367.23,-357.22"/>
<polygon fill="#f85149" stroke="#f85149" points="367.34,-360.03 375.44,-357.56 367.56,-354.43 367.34,-360.03"/>
</g>
<!-- gpu_t -->
<g id="node4" class="node">
<title>gpu_t</title>
<path fill="#1a2e1a" stroke="#3fb950" d="M142,-139C142,-139 28,-139 28,-139 22,-139 16,-133 16,-127 16,-127 16,-115 16,-115 16,-109 22,-103 28,-103 28,-103 142,-103 142,-103 148,-103 154,-109 154,-115 154,-115 154,-127 154,-127 154,-133 148,-139 142,-139"/>
<text text-anchor="middle" x="85" y="-124.2" font-family="Courier New" font-size="11.00" fill="#c9d1d9">gpu::poll_loop()</text>
<text text-anchor="middle" x="85" y="-112.2" font-family="Courier New" font-size="11.00" fill="#c9d1d9">task (5s interval)</text>
</g>
<!-- cmd_gpu -->
<g id="node9" class="node">
<title>cmd_gpu</title>
<path fill="#2a1a0a" stroke="#d29922" d="M515,-131C515,-131 367,-131 367,-131 361,-131 355,-125 355,-119 355,-119 355,-107 355,-107 355,-101 361,-95 367,-95 367,-95 515,-95 515,-95 521,-95 527,-101 527,-107 527,-107 527,-119 527,-119 527,-125 521,-131 515,-131"/>
<text text-anchor="middle" x="441" y="-110.2" font-family="Courier New" font-size="11.00" fill="#c9d1d9">GpuStatus(Vec&lt;GpuInfo&gt;)</text>
</g>
<!-- gpu_t&#45;&gt;cmd_gpu -->
<g id="edge9" class="edge">
<title>gpu_t&#45;&gt;cmd_gpu</title>
<path fill="none" stroke="#d29922" d="M146.41,-103C170.88,-96.58 199.55,-90.17 226,-87 269.02,-81.85 316.89,-86.68 356.43,-93.51"/>
<polygon fill="#d29922" stroke="#d29922" points="356.37,-96.34 364.74,-94.99 357.36,-90.83 356.37,-96.34"/>
</g>
<!-- h_token -->
<g id="node11" class="node">
<title>h_token</title>
<path fill="#2e1a3b" stroke="#bc8cff" d="M831,-297C831,-297 670,-297 670,-297 664,-297 658,-291 658,-285 658,-285 658,-273 658,-273 658,-267 664,-261 670,-261 670,-261 831,-261 831,-261 837,-261 843,-267 843,-273 843,-273 843,-285 843,-285 843,-291 837,-297 831,-297"/>
<text text-anchor="middle" x="750.5" y="-282.2" font-family="Courier New" font-size="11.00" fill="#c9d1d9">→ actor_buf /</text>
<text text-anchor="middle" x="750.5" y="-270.2" font-family="Courier New" font-size="11.00" fill="#c9d1d9"> &#160;&#160;critic_buf.push(token)</text>
</g>
<!-- cmd_token&#45;&gt;h_token -->
<g id="edge10" class="edge">
<title>cmd_token&#45;&gt;h_token</title>
<path fill="none" stroke="#58a6ff" d="M520.39,-279C559.76,-279 607.88,-279 649.85,-279"/>
<polygon fill="#58a6ff" stroke="#58a6ff" points="649.88,-281.8 657.88,-279 649.88,-276.2 649.88,-281.8"/>
</g>
<!-- h_done -->
<g id="node12" class="node">
<title>h_done</title>
<path fill="#2e1a3b" stroke="#bc8cff" d="M814.5,-218C814.5,-218 686.5,-218 686.5,-218 680.5,-218 674.5,-212 674.5,-206 674.5,-206 674.5,-186 674.5,-186 674.5,-180 680.5,-174 686.5,-174 686.5,-174 814.5,-174 814.5,-174 820.5,-174 826.5,-180 826.5,-186 826.5,-186 826.5,-206 826.5,-206 826.5,-212 820.5,-218 814.5,-218"/>
<text text-anchor="middle" x="750.5" y="-205.2" font-family="Courier New" font-size="11.00" fill="#c9d1d9">→ history.push(Turn)</text>
<text text-anchor="middle" x="750.5" y="-193.2" font-family="Courier New" font-size="11.00" fill="#c9d1d9">→ extract_score()</text>
<text text-anchor="middle" x="750.5" y="-181.2" font-family="Courier New" font-size="11.00" fill="#c9d1d9">→ spawn next task</text>
</g>
<!-- cmd_turndone&#45;&gt;h_done -->
<g id="edge11" class="edge">
<title>cmd_turndone&#45;&gt;h_done</title>
<path fill="none" stroke="#58a6ff" d="M503.86,-196C550.55,-196 615.11,-196 666.33,-196"/>
<polygon fill="#58a6ff" stroke="#58a6ff" points="666.43,-198.8 674.43,-196 666.43,-193.2 666.43,-198.8"/>
</g>
<!-- h_ready -->
<g id="node13" class="node">
<title>h_ready</title>
<path fill="#2e1a3b" stroke="#bc8cff" d="M814.5,-455C814.5,-455 686.5,-455 686.5,-455 680.5,-455 674.5,-449 674.5,-443 674.5,-443 674.5,-431 674.5,-431 674.5,-425 680.5,-419 686.5,-419 686.5,-419 814.5,-419 814.5,-419 820.5,-419 826.5,-425 826.5,-431 826.5,-431 826.5,-443 826.5,-443 826.5,-449 820.5,-455 814.5,-455"/>
<text text-anchor="middle" x="750.5" y="-440.2" font-family="Courier New" font-size="11.00" fill="#c9d1d9">→ state = ActorThink</text>
<text text-anchor="middle" x="750.5" y="-428.2" font-family="Courier New" font-size="11.00" fill="#c9d1d9">→ spawn_actor()</text>
</g>
<!-- cmd_ready&#45;&gt;h_ready -->
<g id="edge12" class="edge">
<title>cmd_ready&#45;&gt;h_ready</title>
<path fill="none" stroke="#58a6ff" d="M483.15,-437C529.73,-437 606.83,-437 666.12,-437"/>
<polygon fill="#58a6ff" stroke="#58a6ff" points="666.36,-439.8 674.36,-437 666.36,-434.2 666.36,-439.8"/>
</g>
<!-- h_error -->
<g id="node14" class="node">
<title>h_error</title>
<path fill="#3b1a1a" stroke="#f85149" d="M814.5,-376C814.5,-376 686.5,-376 686.5,-376 680.5,-376 674.5,-370 674.5,-364 674.5,-364 674.5,-352 674.5,-352 674.5,-346 680.5,-340 686.5,-340 686.5,-340 814.5,-340 814.5,-340 820.5,-340 826.5,-346 826.5,-352 826.5,-352 826.5,-364 826.5,-364 826.5,-370 820.5,-376 814.5,-376"/>
<text text-anchor="middle" x="750.5" y="-361.2" font-family="Courier New" font-size="11.00" fill="#c9d1d9">→ state = Error(msg)</text>
<text text-anchor="middle" x="750.5" y="-349.2" font-family="Courier New" font-size="11.00" fill="#c9d1d9">→ status = err</text>
</g>
<!-- cmd_error&#45;&gt;h_error -->
<g id="edge13" class="edge">
<title>cmd_error&#45;&gt;h_error</title>
<path fill="none" stroke="#f85149" d="M506.84,-358C553.24,-358 616.1,-358 666.22,-358"/>
<polygon fill="#f85149" stroke="#f85149" points="666.47,-360.8 674.47,-358 666.47,-355.2 666.47,-360.8"/>
</g>
<!-- h_gpu -->
<g id="node15" class="node">
<title>h_gpu</title>
<path fill="#2e1a3b" stroke="#d29922" d="M807.5,-131C807.5,-131 693.5,-131 693.5,-131 687.5,-131 681.5,-125 681.5,-119 681.5,-119 681.5,-107 681.5,-107 681.5,-101 687.5,-95 693.5,-95 693.5,-95 807.5,-95 807.5,-95 813.5,-95 819.5,-101 819.5,-107 819.5,-107 819.5,-119 819.5,-119 819.5,-125 813.5,-131 807.5,-131"/>
<text text-anchor="middle" x="750.5" y="-116.2" font-family="Courier New" font-size="11.00" fill="#c9d1d9">→ app.gpu = gpus</text>
<text text-anchor="middle" x="750.5" y="-104.2" font-family="Courier New" font-size="11.00" fill="#c9d1d9">(title bar update)</text>
</g>
<!-- cmd_gpu&#45;&gt;h_gpu -->
<g id="edge14" class="edge">
<title>cmd_gpu&#45;&gt;h_gpu</title>
<path fill="none" stroke="#d29922" d="M527.25,-113C572.93,-113 628.75,-113 673.02,-113"/>
<polygon fill="#d29922" stroke="#d29922" points="673.15,-115.8 681.15,-113 673.15,-110.2 673.15,-115.8"/>
</g>
<!-- cmd_status -->
<g id="node10" class="node">
<title>cmd_status</title>
<path fill="#0d1a3b" stroke="#6e7681" d="M494.5,-52C494.5,-52 387.5,-52 387.5,-52 381.5,-52 375.5,-46 375.5,-40 375.5,-40 375.5,-28 375.5,-28 375.5,-22 381.5,-16 387.5,-16 387.5,-16 494.5,-16 494.5,-16 500.5,-16 506.5,-22 506.5,-28 506.5,-28 506.5,-40 506.5,-40 506.5,-46 500.5,-52 494.5,-52"/>
<text text-anchor="middle" x="441" y="-31.2" font-family="Courier New" font-size="11.00" fill="#c9d1d9">StatusMsg(String)</text>
</g>
<!-- h_status -->
<g id="node16" class="node">
<title>h_status</title>
<path fill="#2e1a3b" stroke="#6e7681" d="M807.5,-52C807.5,-52 693.5,-52 693.5,-52 687.5,-52 681.5,-46 681.5,-40 681.5,-40 681.5,-28 681.5,-28 681.5,-22 687.5,-16 693.5,-16 693.5,-16 807.5,-16 807.5,-16 813.5,-16 819.5,-22 819.5,-28 819.5,-28 819.5,-40 819.5,-40 819.5,-46 813.5,-52 807.5,-52"/>
<text text-anchor="middle" x="750.5" y="-37.2" font-family="Courier New" font-size="11.00" fill="#c9d1d9">→ app.status = msg</text>
<text text-anchor="middle" x="750.5" y="-25.2" font-family="Courier New" font-size="11.00" fill="#c9d1d9">(status bar)</text>
</g>
<!-- cmd_status&#45;&gt;h_status -->
<g id="edge15" class="edge">
<title>cmd_status&#45;&gt;h_status</title>
<path fill="none" stroke="#6e7681" d="M506.84,-34C555.43,-34 622.06,-34 673.22,-34"/>
<polygon fill="#6e7681" stroke="#6e7681" points="673.29,-36.8 681.29,-34 673.29,-31.2 673.29,-36.8"/>
</g>
</g>
</svg>
