<?xml version="1.0" encoding="UTF-8" standalone="no"?>
<!DOCTYPE svg PUBLIC "-//W3C//DTD SVG 1.1//EN"
 "http://www.w3.org/Graphics/SVG/1.1/DTD/svg11.dtd">
<!-- Generated by graphviz version 2.43.0 (0)
 -->
<!-- Title: state_machine Pages: 1 -->
<svg width="1008pt" height="743pt"
 viewBox="0.00 0.00 1007.51 743.13" xmlns="http://www.w3.org/2000/svg" xmlns:xlink="http://www.w3.org/1999/xlink">
<g id="graph0" class="graph" transform="scale(1 1) rotate(0) translate(43.2 699.93)">
<title>state_machine</title>
<polygon fill="#0d1117" stroke="transparent" points="-43.2,43.2 -43.2,-699.93 964.31,-699.93 964.31,43.2 -43.2,43.2"/>
<text text-anchor="middle" x="460.55" y="-638.33" font-family="Courier New" font-size="18.00" fill="#c9d1d9">duel — LoopState State Machine</text>
<!-- Idle -->
<g id="node1" class="node">
<title>Idle</title>
<ellipse fill="#1f4068" stroke="#58a6ff" cx="641.11" cy="-503.29" rx="86.03" ry="24.08"/>
<text text-anchor="middle" x="641.11" y="-506.69" font-family="Courier New" font-size="12.00" fill="#ffffff">Idle</text>
<text text-anchor="middle" x="641.11" y="-493.69" font-family="Courier New" font-size="12.00" fill="#ffffff">(prompt entry)</text>
</g>
<!-- Prewarm -->
<g id="node2" class="node">
<title>Prewarm</title>
<ellipse fill="#2a2a0a" stroke="#d29922" cx="641.11" cy="-347.21" rx="91.43" ry="24.08"/>
<text text-anchor="middle" x="641.11" y="-350.61" font-family="Courier New" font-size="12.00" fill="#ffffff">Prewarm</text>
<text text-anchor="middle" x="641.11" y="-337.61" font-family="Courier New" font-size="12.00" fill="#ffffff">(model loading)</text>
</g>
<!-- Idle&#45;&gt;Prewarm -->
<g id="edge2" class="edge">
<title>Idle&#45;&gt;Prewarm</title>
<path fill="none" stroke="#58a6ff" d="M641.11,-479.22C641.11,-453.01 641.11,-410.05 641.11,-380.51"/>
<polygon fill="#58a6ff" stroke="#58a6ff" points="644.26,-380.43 641.11,-371.43 637.96,-380.43 644.26,-380.43"/>
<text text-anchor="middle" x="695.61" y="-428.25" font-family="Courier New" font-size="10.00" fill="#8b949e">Enter key</text>
<text text-anchor="middle" x="695.61" y="-417.25" font-family="Courier New" font-size="10.00" fill="#8b949e">(prompt non&#45;empty)</text>
</g>
<!-- ActorThink -->
<g id="node3" class="node">
<title>ActorThink</title>
<ellipse fill="#0d3b2e" stroke="#3fb950" cx="182.11" cy="-191.12" rx="107.46" ry="24.08"/>
<text text-anchor="middle" x="182.11" y="-194.52" font-family="Courier New" font-size="12.00" fill="#ffffff">ActorThink</text>
<text text-anchor="middle" x="182.11" y="-181.52" font-family="Courier New" font-size="12.00" fill="#ffffff">(streaming tokens)</text>
</g>
<!-- Prewarm&#45;&gt;ActorThink -->
<g id="edge3" class="edge">
<title>Prewarm&#45;&gt;ActorThink</title>
<path fill="none" stroke="#3fb950" d="M586.19,-327.78C501.59,-299.38 339.64,-245.01 248.55,-214.43"/>
<polygon fill="#3fb950" stroke="#3fb950" points="249.5,-211.43 239.96,-211.55 247.49,-217.4 249.5,-211.43"/>
<text text-anchor="middle" x="475.61" y="-272.17" font-family="Courier New" font-size="10.00" fill="#8b949e">AppCommand::</text>
<text text-anchor="middle" x="475.61" y="-261.17" font-family="Courier New" font-size="10.00" fill="#8b949e">ModelReady</text>
</g>
<!-- Error -->
<g id="node6" class="node">
<title>Error</title>
<ellipse fill="#3b0a0a" stroke="#f85149" cx="757.11" cy="-24.04" rx="91.43" ry="24.08"/>
<text text-anchor="middle" x="757.11" y="-27.44" font-family="Courier New" font-size="12.00" fill="#ffffff">Error(msg)</text>
<text text-anchor="middle" x="757.11" y="-14.44" font-family="Courier New" font-size="12.00" fill="#ffffff">(async failure)</text>
</g>
<!-- Prewarm&#45;&gt;Error -->
<g id="edge4" class="edge">
<title>Prewarm&#45;&gt;Error</title>
<path fill="none" stroke="#f85149" d="M661.65,-323.77C694.71,-285.96 758.4,-205.67 782.11,-124.08 788.66,-101.53 781.74,-75.82 773.54,-56.24"/>
<polygon fill="#f85149" stroke="#f85149" points="776.4,-54.92 769.85,-47.98 770.65,-57.48 776.4,-54.92"/>
<text text-anchor="middle" x="799.61" y="-194.12" font-family="Courier New" font-size="10.00" fill="#8b949e">pre_warm()</text>
<text text-anchor="middle" x="799.61" y="-183.12" font-family="Courier New" font-size="10.00" fill="#8b949e">timeout/err</text>
</g>
<!-- CriticThink -->
<g id="node4" class="node">
<title>CriticThink</title>
<ellipse fill="#3b2a0a" stroke="#e3b341" cx="582.11" cy="-191.12" rx="107.46" ry="24.08"/>
<text text-anchor="middle" x="582.11" y="-194.52" font-family="Courier New" font-size="12.00" fill="#ffffff">CriticThink</text>
<text text-anchor="middle" x="582.11" y="-181.52" font-family="Courier New" font-size="12.00" fill="#ffffff">(streaming tokens)</text>
</g>
<!-- ActorThink&#45;&gt;CriticThink -->
<g id="edge5" class="edge">
<title>ActorThink&#45;&gt;CriticThink</title>
<path fill="none" stroke="#e3b341" d="M260.35,-174.59C280.24,-171.08 301.63,-167.9 321.61,-166.12 375.17,-161.36 389.04,-161.36 442.61,-166.12 459.61,-167.64 477.65,-170.17 494.91,-173.05"/>
<polygon fill="#e3b341" stroke="#e3b341" points="494.46,-176.17 503.86,-174.59 495.52,-169.96 494.46,-176.17"/>
<text text-anchor="middle" x="382.11" y="-180.12" font-family="Courier New" font-size="10.00" fill="#8b949e">AppCommand::TurnDone</text>
<text text-anchor="middle" x="382.11" y="-169.12" font-family="Courier New" font-size="10.00" fill="#8b949e">{role: Actor}</text>
</g>
<!-- Paused -->
<g id="node5" class="node">
<title>Paused</title>
<ellipse fill="#3b1f4e" stroke="#bc8cff" cx="139.11" cy="-24.04" rx="107.46" ry="24.08"/>
<text text-anchor="middle" x="139.11" y="-27.44" font-family="Courier New" font-size="12.00" fill="#ffffff">Paused</text>
<text text-anchor="middle" x="139.11" y="-14.44" font-family="Courier New" font-size="12.00" fill="#ffffff">(user interrupted)</text>
</g>
<!-- ActorThink&#45;&gt;Paused -->
<g id="edge7" class="edge">
<title>ActorThink&#45;&gt;Paused</title>
<path fill="none" stroke="#bc8cff" d="M105.66,-174.04C78.66,-164.29 51.06,-148.75 35.11,-124.08 16.23,-94.92 48.71,-68.16 82.23,-49.83"/>
<polygon fill="#bc8cff" stroke="#bc8cff" points="83.79,-52.57 90.29,-45.59 80.86,-46.99 83.79,-52.57"/>
<text text-anchor="middle" x="92.61" y="-116.08" font-family="Courier New" font-size="10.00" fill="#8b949e">Space key</text>
<text text-anchor="middle" x="92.61" y="-105.08" font-family="Courier New" font-size="10.00" fill="#8b949e">(pending_pause=true</text>
<text text-anchor="middle" x="92.61" y="-94.08" font-family="Courier New" font-size="10.00" fill="#8b949e">then TurnDone)</text>
</g>
<!-- ActorThink&#45;&gt;Error -->
<g id="edge12" class="edge">
<title>ActorThink&#45;&gt;Error</title>
<path fill="none" stroke="#f85149" d="M264.08,-175.47C322.74,-164.01 403.18,-146.32 472.11,-124.08 507.93,-112.53 514.8,-104.15 550.11,-91.08 595.92,-74.12 648.35,-57.42 688.98,-45.06"/>
<polygon fill="#f85149" stroke="#f85149" points="690.03,-48.03 697.73,-42.41 688.2,-42.01 690.03,-48.03"/>
<text text-anchor="middle" x="592.61" y="-110.58" font-family="Courier New" font-size="10.00" fill="#8b949e">HTTP error /</text>
<text text-anchor="middle" x="592.61" y="-99.58" font-family="Courier New" font-size="10.00" fill="#8b949e">Ollama timeout</text>
</g>
<!-- CriticThink&#45;&gt;ActorThink -->
<g id="edge6" class="edge">
<title>CriticThink&#45;&gt;ActorThink</title>
<path fill="none" stroke="#3fb950" d="M474.54,-191.12C420.31,-191.12 354.46,-191.12 298.99,-191.12"/>
<polygon fill="#3fb950" stroke="#3fb950" points="298.82,-187.97 289.82,-191.12 298.82,-194.27 298.82,-187.97"/>
<text text-anchor="middle" x="382.11" y="-219.12" font-family="Courier New" font-size="10.00" fill="#8b949e">AppCommand::TurnDone</text>
<text text-anchor="middle" x="382.11" y="-208.12" font-family="Courier New" font-size="10.00" fill="#8b949e">{role: Critic}</text>
<text text-anchor="middle" x="382.11" y="-197.12" font-family="Courier New" font-size="10.00" fill="#8b949e">iteration += 1</text>
</g>
<!-- CriticThink&#45;&gt;Paused -->
<g id="edge8" class="edge">
<title>CriticThink&#45;&gt;Paused</title>
<path fill="none" stroke="#bc8cff" d="M509.22,-173.36C461.8,-161.59 398.97,-144.36 345.11,-124.08 289.16,-103.03 227.74,-72.46 186.65,-50.87"/>
<polygon fill="#bc8cff" stroke="#bc8cff" points="187.88,-47.96 178.45,-46.54 184.94,-53.53 187.88,-47.96"/>
<text text-anchor="middle" x="402.61" y="-116.08" font-family="Courier New" font-size="10.00" fill="#8b949e">Space key</text>
<text text-anchor="middle" x="402.61" y="-105.08" font-family="Courier New" font-size="10.00" fill="#8b949e">(pending_pause=true</text>
<text text-anchor="middle" x="402.61" y="-94.08" font-family="Courier New" font-size="10.00" fill="#8b949e">then TurnDone)</text>
</g>
<!-- CriticThink&#45;&gt;Error -->
<g id="edge13" class="edge">
<title>CriticThink&#45;&gt;Error</title>
<path fill="none" stroke="#f85149" d="M605.27,-167.55C626.05,-147.37 657.44,-117.07 685.11,-91.08 698.35,-78.64 713.13,-65.04 725.83,-53.44"/>
<polygon fill="#f85149" stroke="#f85149" points="728.12,-55.61 732.64,-47.22 723.87,-50.96 728.12,-55.61"/>
<text text-anchor="middle" x="727.61" y="-110.58" font-family="Courier New" font-size="10.00" fill="#8b949e">HTTP error /</text>
<text text-anchor="middle" x="727.61" y="-99.58" font-family="Courier New" font-size="10.00" fill="#8b949e">Ollama timeout</text>
</g>
<!-- Paused&#45;&gt;Idle -->
<g id="edge10" class="edge">
<title>Paused&#45;&gt;Idle</title>
<path fill="none" stroke="#58a6ff" d="M74.81,-43.4C51.5,-53.5 27.6,-68.7 14.11,-91.08 -15.08,-139.5 5.21,-172.33 42.11,-215.17 182.48,-378.15 436.29,-456.06 563.71,-486.34"/>
<polygon fill="#58a6ff" stroke="#58a6ff" points="563.19,-489.45 572.67,-488.44 564.62,-483.32 563.19,-489.45"/>
<text text-anchor="middle" x="145.61" y="-272.17" font-family="Courier New" font-size="10.00" fill="#8b949e">&#39;e&#39; key</text>
<text text-anchor="middle" x="145.61" y="-261.17" font-family="Courier New" font-size="10.00" fill="#8b949e">(edit prompt)</text>
</g>
<!-- Paused&#45;&gt;ActorThink -->
<g id="edge9" class="edge">
<title>Paused&#45;&gt;ActorThink</title>
<path fill="none" stroke="#3fb950" d="M147.97,-48.03C152.61,-60.61 158.13,-76.56 162.11,-91.08 168.12,-113.04 173.17,-138.18 176.7,-157.64"/>
<polygon fill="#3fb950" stroke="#3fb950" points="173.63,-158.39 178.3,-166.7 179.83,-157.29 173.63,-158.39"/>
<text text-anchor="middle" x="197.61" y="-110.58" font-family="Courier New" font-size="10.00" fill="#8b949e">Space key</text>
<text text-anchor="middle" x="197.61" y="-99.58" font-family="Courier New" font-size="10.00" fill="#8b949e">(resume)</text>
</g>
<!-- Error&#45;&gt;Idle -->
<g id="edge11" class="edge">
<title>Error&#45;&gt;Idle</title>
<path fill="none" stroke="#58a6ff" d="M790.44,-46.42C805.69,-57.88 822.65,-73.3 833.11,-91.08 861.28,-139.02 859.04,-160.46 849.11,-215.17 830.36,-318.43 835.46,-357.48 766.11,-436.25 749.21,-455.44 725.36,-469.95 703.01,-480.41"/>
<polygon fill="#58a6ff" stroke="#58a6ff" points="701.46,-477.66 694.54,-484.22 704.04,-483.4 701.46,-477.66"/>
<text text-anchor="middle" x="881.61" y="-272.17" font-family="Courier New" font-size="10.00" fill="#8b949e">&#39;e&#39; key</text>
<text text-anchor="middle" x="881.61" y="-261.17" font-family="Courier New" font-size="10.00" fill="#8b949e">(edit prompt)</text>
</g>
<!-- start -->
<g id="node7" class="node">
<title>start</title>
<ellipse fill="#c9d1d9" stroke="black" cx="641.11" cy="-621.53" rx="7.2" ry="7.2"/>
</g>
<!-- start&#45;&gt;Idle -->
<g id="edge1" class="edge">
<title>start&#45;&gt;Idle</title>
<path fill="none" stroke="black" d="M641.11,-614.28C641.11,-599.94 641.11,-563.83 641.11,-536.87"/>
<polygon fill="black" stroke="black" points="644.26,-536.76 641.11,-527.76 637.96,-536.76 644.26,-536.76"/>
</g>
</g>
</svg>
