<?xml version="1.0" encoding="UTF-8" standalone="no"?>
<!DOCTYPE svg PUBLIC "-//W3C//DTD SVG 1.1//EN"
 "http://www.w3.org/Graphics/SVG/1.1/DTD/svg11.dtd">
<!-- Generated by graphviz version 2.43.0 (0)
 -->
<!-- Title: tui_layout Pages: 1 -->
<svg width="1162pt" height="727pt"
 viewBox="0.00 0.00 1162.00 727.00" xmlns="http://www.w3.org/2000/svg" xmlns:xlink="http://www.w3.org/1999/xlink">
<g id="graph0" class="graph" transform="scale(1 1) rotate(0) translate(36 691)">
<title>tui_layout</title>
<polygon fill="#0d1117" stroke="transparent" points="-36,36 -36,-691 1126,-691 1126,36 -36,36"/>
<text text-anchor="middle" x="545" y="-636.6" font-family="Courier New" font-size="18.00" fill="#c9d1d9">duel — TUI Layout (Ratatui Widgets)</text>
<g id="clust1" class="cluster">
<title>cluster_prompt</title>
<path fill="#0d1a0d" stroke="#3fb950" d="M20,-14C20,-14 290,-14 290,-14 296,-14 302,-20 302,-26 302,-26 302,-516 302,-516 302,-522 296,-528 290,-528 290,-528 20,-528 20,-528 14,-528 8,-522 8,-516 8,-516 8,-26 8,-26 8,-20 14,-14 20,-14"/>
<text text-anchor="middle" x="155" y="-514.4" font-family="Courier New" font-size="12.00" fill="#c9d1d9">View A: Prompt Entry &#160;(state == Idle)</text>
</g>
<g id="clust2" class="cluster">
<title>cluster_duel</title>
<path fill="#0d1a2e" stroke="#58a6ff" d="M322,-8C322,-8 844,-8 844,-8 850,-8 856,-14 856,-20 856,-20 856,-522 856,-522 856,-528 850,-534 844,-534 844,-534 322,-534 322,-534 316,-534 310,-528 310,-522 310,-522 310,-20 310,-20 310,-14 316,-8 322,-8"/>
<text text-anchor="middle" x="583" y="-520.4" font-family="Courier New" font-size="12.00" fill="#c9d1d9">View B: Duel Loop &#160;(state != Idle)</text>
</g>
<g id="clust3" class="cluster">
<title>cluster_panels</title>
<path fill="#101a20" stroke="#3fb950" d="M330,-288C330,-288 836,-288 836,-288 842,-288 848,-294 848,-300 848,-300 848,-380 848,-380 848,-386 842,-392 836,-392 836,-392 330,-392 330,-392 324,-392 318,-386 318,-380 318,-380 318,-300 318,-300 318,-294 324,-288 330,-288"/>
<text text-anchor="middle" x="583" y="-379.2" font-family="Courier New" font-size="11.00" fill="#c9d1d9">Live Panels (60% height) &#160;— &#160;horizontal split</text>
</g>
<!-- draw -->
<g id="node1" class="node">
<title>draw</title>
<path fill="#1a1a2e" stroke="#58a6ff" d="M670,-627C670,-627 542,-627 542,-627 536,-627 530,-621 530,-615 530,-615 530,-603 530,-603 530,-597 536,-591 542,-591 542,-591 670,-591 670,-591 676,-591 682,-597 682,-603 682,-603 682,-615 682,-615 682,-621 676,-627 670,-627"/>
<text text-anchor="middle" x="606" y="-612.2" font-family="Courier New" font-size="11.00" fill="#c9d1d9">draw(Frame, App)</text>
<text text-anchor="middle" x="606" y="-600.2" font-family="Courier New" font-size="11.00" fill="#c9d1d9">routes on App::state</text>
</g>
<!-- pv_title -->
<g id="node2" class="node">
<title>pv_title</title>
<path fill="#0d2e1a" stroke="#3fb950" d="M281,-499C281,-499 93,-499 93,-499 87,-499 81,-493 81,-487 81,-487 81,-467 81,-467 81,-461 87,-455 93,-455 93,-455 281,-455 281,-455 287,-455 293,-461 293,-467 293,-467 293,-487 293,-487 293,-493 287,-499 281,-499"/>
<text text-anchor="middle" x="187" y="-486.2" font-family="Courier New" font-size="11.00" fill="#c9d1d9">Title bar (1 line)</text>
<text text-anchor="middle" x="187" y="-474.2" font-family="Courier New" font-size="11.00" fill="#c9d1d9">&#39;duel · qwen3.5:4b · [theme]&#39;</text>
<text text-anchor="middle" x="187" y="-462.2" font-family="Courier New" font-size="11.00" fill="#c9d1d9">Paragraph, bg=title_bg</text>
</g>
<!-- draw&#45;&gt;pv_title -->
<g id="edge1" class="edge">
<title>draw&#45;&gt;pv_title</title>
<path fill="none" stroke="#444c56" d="M529.79,-594.48C467.03,-582.19 376.28,-561.73 300,-534 276.32,-525.39 251.09,-513.2 230.49,-502.4"/>
<polygon fill="#444c56" stroke="#444c56" points="231.59,-500.2 224.25,-499.09 229.29,-504.53 231.59,-500.2"/>
<text text-anchor="middle" x="393" y="-549.8" font-family="Courier New" font-size="9.00" fill="#8b949e">Idle</text>
</g>
<!-- dv_title -->
<g id="node6" class="node">
<title>dv_title</title>
<path fill="#1a2e4a" stroke="#58a6ff" d="M751,-505C751,-505 461,-505 461,-505 455,-505 449,-499 449,-493 449,-493 449,-461 449,-461 449,-455 455,-449 461,-449 461,-449 751,-449 751,-449 757,-449 763,-455 763,-461 763,-461 763,-493 763,-493 763,-499 757,-505 751,-505"/>
<text text-anchor="middle" x="606" y="-492.2" font-family="Courier New" font-size="11.00" fill="#c9d1d9">Title bar (1 line)</text>
<text text-anchor="middle" x="606" y="-480.2" font-family="Courier New" font-size="11.00" fill="#c9d1d9">&#39;duel · qwen3.5:4b &#160;iter N &#160;· [GPU] [theme]&#39;</text>
<text text-anchor="middle" x="606" y="-468.2" font-family="Courier New" font-size="11.00" fill="#c9d1d9">State badge: RUNNING / PAUSED / ERROR</text>
<text text-anchor="middle" x="606" y="-456.2" font-family="Courier New" font-size="11.00" fill="#c9d1d9">Paragraph + badge overlay</text>
</g>
<!-- draw&#45;&gt;dv_title -->
<g id="edge2" class="edge">
<title>draw&#45;&gt;dv_title</title>
<path fill="none" stroke="#444c56" d="M606,-590.74C606,-570.87 606,-537.75 606,-512.54"/>
<polygon fill="#444c56" stroke="#444c56" points="608.45,-512.32 606,-505.32 603.55,-512.32 608.45,-512.32"/>
<text text-anchor="middle" x="627.5" y="-549.8" font-family="Courier New" font-size="9.00" fill="#8b949e">non&#45;Idle</text>
</g>
<!-- help -->
<g id="node11" class="node">
<title>help</title>
<path fill="#1f0d3b" stroke="#bc8cff" d="M1078,-505C1078,-505 876,-505 876,-505 870,-505 864,-499 864,-493 864,-493 864,-461 864,-461 864,-455 870,-449 876,-449 876,-449 1078,-449 1078,-449 1084,-449 1090,-455 1090,-461 1090,-461 1090,-493 1090,-493 1090,-499 1084,-505 1078,-505"/>
<text text-anchor="middle" x="977" y="-492.2" font-family="Courier New" font-size="11.00" fill="#c9d1d9">Help Overlay (any state, ?&#45;key)</text>
<text text-anchor="middle" x="977" y="-480.2" font-family="Courier New" font-size="11.00" fill="#c9d1d9">Clear widget under popup</text>
<text text-anchor="middle" x="977" y="-468.2" font-family="Courier New" font-size="11.00" fill="#c9d1d9">Rounded&#45;border Block, centered</text>
<text text-anchor="middle" x="977" y="-456.2" font-family="Courier New" font-size="11.00" fill="#c9d1d9">Keybinding table: key &#45;&gt; action</text>
</g>
<!-- draw&#45;&gt;help -->
<g id="edge3" class="edge">
<title>draw&#45;&gt;help</title>
<path fill="none" stroke="#444c56" stroke-dasharray="5,2" d="M675.73,-590.96C727.34,-577.57 798.97,-557.32 860,-534 879.39,-526.59 899.99,-517.26 918.41,-508.35"/>
<polygon fill="#444c56" stroke="#444c56" points="919.87,-510.36 925.09,-505.09 917.72,-505.95 919.87,-510.36"/>
<text text-anchor="middle" x="870" y="-554.8" font-family="Courier New" font-size="9.00" fill="#8b949e">show_help=true</text>
<text text-anchor="middle" x="870" y="-544.8" font-family="Courier New" font-size="9.00" fill="#8b949e">(overlay)</text>
</g>
<!-- pv_input -->
<g id="node3" class="node">
<title>pv_input</title>
<path fill="#0d2e1a" stroke="#3fb950" d="M256.5,-358C256.5,-358 115.5,-358 115.5,-358 109.5,-358 103.5,-352 103.5,-346 103.5,-346 103.5,-314 103.5,-314 103.5,-308 109.5,-302 115.5,-302 115.5,-302 256.5,-302 256.5,-302 262.5,-302 268.5,-308 268.5,-314 268.5,-314 268.5,-346 268.5,-346 268.5,-352 262.5,-358 256.5,-358"/>
<text text-anchor="middle" x="186" y="-345.2" font-family="Courier New" font-size="11.00" fill="#c9d1d9">Input Box (3 lines)</text>
<text text-anchor="middle" x="186" y="-333.2" font-family="Courier New" font-size="11.00" fill="#c9d1d9">BorderType::Double</text>
<text text-anchor="middle" x="186" y="-321.2" font-family="Courier New" font-size="11.00" fill="#c9d1d9">glow_style() border</text>
<text text-anchor="middle" x="186" y="-309.2" font-family="Courier New" font-size="11.00" fill="#c9d1d9">&#39;&gt; {input_buf} cursor&#39;</text>
</g>
<!-- pv_title&#45;&gt;pv_input -->
<g id="edge4" class="edge">
<title>pv_title&#45;&gt;pv_input</title>
<path fill="none" stroke="#444c56" d="M186.85,-454.92C186.69,-431.41 186.43,-393.05 186.24,-365.23"/>
<polygon fill="#444c56" stroke="#444c56" points="188.68,-365.02 186.19,-358.04 183.78,-365.06 188.68,-365.02"/>
<text text-anchor="middle" x="208.5" y="-412.8" font-family="Courier New" font-size="9.00" fill="#8b949e">vertical</text>
<text text-anchor="middle" x="208.5" y="-402.8" font-family="Courier New" font-size="9.00" fill="#8b949e">layout</text>
</g>
<!-- pv_desc -->
<g id="node4" class="node">
<title>pv_desc</title>
<path fill="#0d2e1a" stroke="#3fb950" d="M281.5,-206C281.5,-206 86.5,-206 86.5,-206 80.5,-206 74.5,-200 74.5,-194 74.5,-194 74.5,-174 74.5,-174 74.5,-168 80.5,-162 86.5,-162 86.5,-162 281.5,-162 281.5,-162 287.5,-162 293.5,-168 293.5,-174 293.5,-174 293.5,-194 293.5,-194 293.5,-200 287.5,-206 281.5,-206"/>
<text text-anchor="middle" x="184" y="-193.2" font-family="Courier New" font-size="11.00" fill="#c9d1d9">Description (2 lines)</text>
<text text-anchor="middle" x="184" y="-181.2" font-family="Courier New" font-size="11.00" fill="#c9d1d9">&#39;Actor &gt; Critic &gt; Actor &gt; inf&#39;</text>
<text text-anchor="middle" x="184" y="-169.2" font-family="Courier New" font-size="11.00" fill="#c9d1d9">Static Paragraph</text>
</g>
<!-- pv_input&#45;&gt;pv_desc -->
<g id="edge5" class="edge">
<title>pv_input&#45;&gt;pv_desc</title>
<path fill="none" stroke="#444c56" d="M185.62,-301.91C185.27,-276.7 184.75,-239.26 184.4,-213.58"/>
<polygon fill="#444c56" stroke="#444c56" points="186.84,-213.3 184.3,-206.34 181.94,-213.37 186.84,-213.3"/>
<text text-anchor="middle" x="207.5" y="-259.8" font-family="Courier New" font-size="9.00" fill="#8b949e">vertical</text>
<text text-anchor="middle" x="207.5" y="-249.8" font-family="Courier New" font-size="9.00" fill="#8b949e">layout</text>
</g>
<!-- pv_stat -->
<g id="node5" class="node">
<title>pv_stat</title>
<path fill="#0d2e1a" stroke="#3fb950" d="M275,-66C275,-66 93,-66 93,-66 87,-66 81,-60 81,-54 81,-54 81,-34 81,-34 81,-28 87,-22 93,-22 93,-22 275,-22 275,-22 281,-22 287,-28 287,-34 287,-34 287,-54 287,-54 287,-60 281,-66 275,-66"/>
<text text-anchor="middle" x="184" y="-53.2" font-family="Courier New" font-size="11.00" fill="#c9d1d9">Status bar (1 line)</text>
<text text-anchor="middle" x="184" y="-41.2" font-family="Courier New" font-size="11.00" fill="#c9d1d9">&#39;Enter:start &#160;Backspace:del&#39;</text>
<text text-anchor="middle" x="184" y="-29.2" font-family="Courier New" font-size="11.00" fill="#c9d1d9">Paragraph, bg=title_bg</text>
</g>
<!-- pv_desc&#45;&gt;pv_stat -->
<g id="edge6" class="edge">
<title>pv_desc&#45;&gt;pv_stat</title>
<path fill="none" stroke="#444c56" d="M184,-161.74C184,-137.97 184,-99.36 184,-73.11"/>
<polygon fill="#444c56" stroke="#444c56" points="186.45,-73.06 184,-66.06 181.55,-73.06 186.45,-73.06"/>
<text text-anchor="middle" x="205.5" y="-113.8" font-family="Courier New" font-size="9.00" fill="#8b949e">vertical</text>
<text text-anchor="middle" x="205.5" y="-103.8" font-family="Courier New" font-size="9.00" fill="#8b949e">layout</text>
</g>
<!-- panel_actor -->
<g id="node7" class="node">
<title>panel_actor</title>
<path fill="#0d2e1a" stroke="#3fb950" d="M546.5,-364C546.5,-364 337.5,-364 337.5,-364 331.5,-364 325.5,-358 325.5,-352 325.5,-352 325.5,-308 325.5,-308 325.5,-302 331.5,-296 337.5,-296 337.5,-296 546.5,-296 546.5,-296 552.5,-296 558.5,-302 558.5,-308 558.5,-308 558.5,-352 558.5,-352 558.5,-358 552.5,-364 546.5,-364"/>
<text text-anchor="middle" x="442" y="-351.2" font-family="Courier New" font-size="11.00" fill="#c9d1d9">Actor Panel (55%)</text>
<text text-anchor="middle" x="442" y="-339.2" font-family="Courier New" font-size="11.00" fill="#c9d1d9">Block title: &#39;ACTOR&#39; cyan</text>
<text text-anchor="middle" x="442" y="-327.2" font-family="Courier New" font-size="11.00" fill="#c9d1d9">glow border when ActorThink</text>
<text text-anchor="middle" x="442" y="-315.2" font-family="Courier New" font-size="11.00" fill="#c9d1d9">Streaming actor_buf or last Turn</text>
<text text-anchor="middle" x="442" y="-303.2" font-family="Courier New" font-size="11.00" fill="#c9d1d9">Wrap words</text>
</g>
<!-- dv_title&#45;&gt;panel_actor -->
<g id="edge7" class="edge">
<title>dv_title&#45;&gt;panel_actor</title>
<path fill="none" stroke="#444c56" d="M575.15,-448.73C549.75,-426.27 513.45,-394.17 485.16,-369.16"/>
<polygon fill="#444c56" stroke="#444c56" points="486.49,-367.06 479.62,-364.26 483.24,-370.73 486.49,-367.06"/>
<text text-anchor="middle" x="567" y="-407.8" font-family="Courier New" font-size="9.00" fill="#8b949e">horiz split</text>
</g>
<!-- panel_critic -->
<g id="node8" class="node">
<title>panel_critic</title>
<path fill="#2e1a0a" stroke="#e3b341" d="M828.5,-364C828.5,-364 613.5,-364 613.5,-364 607.5,-364 601.5,-358 601.5,-352 601.5,-352 601.5,-308 601.5,-308 601.5,-302 607.5,-296 613.5,-296 613.5,-296 828.5,-296 828.5,-296 834.5,-296 840.5,-302 840.5,-308 840.5,-308 840.5,-352 840.5,-352 840.5,-358 834.5,-364 828.5,-364"/>
<text text-anchor="middle" x="721" y="-351.2" font-family="Courier New" font-size="11.00" fill="#c9d1d9">Critic Panel (45%)</text>
<text text-anchor="middle" x="721" y="-339.2" font-family="Courier New" font-size="11.00" fill="#c9d1d9">Block title: &#39;CRITIC &#160;9/10&#39; gold</text>
<text text-anchor="middle" x="721" y="-327.2" font-family="Courier New" font-size="11.00" fill="#c9d1d9">Score color: green/yellow/red</text>
<text text-anchor="middle" x="721" y="-315.2" font-family="Courier New" font-size="11.00" fill="#c9d1d9">glow border when CriticThink</text>
<text text-anchor="middle" x="721" y="-303.2" font-family="Courier New" font-size="11.00" fill="#c9d1d9">Streaming critic_buf or last Turn</text>
</g>
<!-- dv_title&#45;&gt;panel_critic -->
<g id="edge8" class="edge">
<title>dv_title&#45;&gt;panel_critic</title>
<path fill="none" stroke="#444c56" d="M627.63,-448.73C645.29,-426.46 670.47,-394.71 690.24,-369.79"/>
<polygon fill="#444c56" stroke="#444c56" points="692.19,-371.27 694.62,-364.26 688.35,-368.22 692.19,-371.27"/>
<text text-anchor="middle" x="692" y="-407.8" font-family="Courier New" font-size="9.00" fill="#8b949e">horiz split</text>
</g>
<!-- dv_history -->
<g id="node9" class="node">
<title>dv_history</title>
<path fill="#1a1a2e" stroke="#bc8cff" d="M682,-218C682,-218 480,-218 480,-218 474,-218 468,-212 468,-206 468,-206 468,-162 468,-162 468,-156 474,-150 480,-150 480,-150 682,-150 682,-150 688,-150 694,-156 694,-162 694,-162 694,-206 694,-206 694,-212 688,-218 682,-218"/>
<text text-anchor="middle" x="581" y="-205.2" font-family="Courier New" font-size="11.00" fill="#c9d1d9">History Pane (remaining height)</text>
<text text-anchor="middle" x="581" y="-193.2" font-family="Courier New" font-size="11.00" fill="#c9d1d9">Scrollable Paragraph</text>
<text text-anchor="middle" x="581" y="-181.2" font-family="Courier New" font-size="11.00" fill="#c9d1d9">Per&#45;turn: header + snippet</text>
<text text-anchor="middle" x="581" y="-169.2" font-family="Courier New" font-size="11.00" fill="#c9d1d9">Newest&#45;at&#45;bottom scrolling</text>
<text text-anchor="middle" x="581" y="-157.2" font-family="Courier New" font-size="11.00" fill="#c9d1d9">Up/Down keys adjust scroll</text>
</g>
<!-- panel_actor&#45;&gt;dv_history -->
<g id="edge9" class="edge">
<title>panel_actor&#45;&gt;dv_history</title>
<path fill="none" stroke="#444c56" d="M473.89,-295.96C494.67,-274.44 521.86,-246.27 543.65,-223.7"/>
<polygon fill="#444c56" stroke="#444c56" points="545.68,-225.12 548.78,-218.38 542.15,-221.72 545.68,-225.12"/>
<text text-anchor="middle" x="551" y="-254.8" font-family="Courier New" font-size="9.00" fill="#8b949e">below panels</text>
</g>
<!-- panel_critic&#45;&gt;dv_history -->
<!-- dv_status -->
<g id="node10" class="node">
<title>dv_status</title>
<path fill="#1a2e4a" stroke="#58a6ff" d="M685.5,-72C685.5,-72 476.5,-72 476.5,-72 470.5,-72 464.5,-66 464.5,-60 464.5,-60 464.5,-28 464.5,-28 464.5,-22 470.5,-16 476.5,-16 476.5,-16 685.5,-16 685.5,-16 691.5,-16 697.5,-22 697.5,-28 697.5,-28 697.5,-60 697.5,-60 697.5,-66 691.5,-72 685.5,-72"/>
<text text-anchor="middle" x="581" y="-59.2" font-family="Courier New" font-size="11.00" fill="#c9d1d9">Status bar (1 line)</text>
<text text-anchor="middle" x="581" y="-47.2" font-family="Courier New" font-size="11.00" fill="#c9d1d9">Context&#45;sensitive key hints</text>
<text text-anchor="middle" x="581" y="-35.2" font-family="Courier New" font-size="11.00" fill="#c9d1d9">running: &#160;&#39;Space:pause &#160;s:save&#39;</text>
<text text-anchor="middle" x="581" y="-23.2" font-family="Courier New" font-size="11.00" fill="#c9d1d9">paused: &#160;&#160;&#39;Space:resume &#160;e:edit&#39;</text>
</g>
<!-- dv_history&#45;&gt;dv_status -->
<g id="edge11" class="edge">
<title>dv_history&#45;&gt;dv_status</title>
<path fill="none" stroke="#444c56" d="M581,-149.95C581,-128.6 581,-100.88 581,-79.29"/>
<polygon fill="#444c56" stroke="#444c56" points="583.45,-79.22 581,-72.22 578.55,-79.22 583.45,-79.22"/>
<text text-anchor="middle" x="615.5" y="-108.8" font-family="Courier New" font-size="9.00" fill="#8b949e">below history</text>
</g>
</g>
</svg>
